<svg xmlns="http://www.w3.org/2000/svg" width="2232" height="1790" viewBox="0 0 2232 1790"><g fill="none" fill-rule="evenodd" transform="translate(-101.5)"><g transform="translate(0 57.927)"><polygon fill="#01BA5C" fill-rule="nonzero" points="527.028 0 0 1732.074 2433 1732.074 1899.971 0"/><polygon fill="#00AE55" points="207.778 1202.112 2216.367 1202.112 2287 1448.074 131 1448.074"/><polygon fill="#01BA5C" points="258.98 1022.719 2165.28 1022.719 2217.888 1202.112 206.365 1202.112"/><polygon fill="#00AE55" points="306.886 859.361 2119.917 859.361 2170.055 1022.719 258.055 1022.719"/><polygon fill="#01BA5C" points="350.576 711.035 2074.885 711.035 2117.9 859.361 307.462 859.361"/><polygon fill="#00AE55" points="387.793 575.739 2036.14 575.739 2075.578 711.035 351.459 711.035"/><polygon fill="#01BA5C" points="424.133 452.468 2000.064 452.468 2036.433 575.739 389.395 575.739"/><polygon fill="#00AE55" points="457.92 340.222 1970.335 340.222 2003.357 452.468 425.357 452.468"/><polygon fill="#01BA5C" points="487.706 237.998 1937.524 237.998 1964.557 340.222 461.069 340.222"/><polygon fill="#00AE55" fill-rule="nonzero" points="514.747 144.794 1914.915 144.794 1941.022 237.998 489.022 237.998"/><polygon fill="#01BA5C" points="539.521 58.604 1887.269 58.604 1910.166 144.794 516.361 144.794"/><polygon fill="#01BA5C" points="539.521 58.604 1887.269 58.604 1910.166 144.794 516.361 144.794"/></g><g transform="translate(1026.707)"><polygon fill="#000" fill-rule="nonzero" points="0 0 29.95 57.605 344.424 57.605 374.374 0" opacity=".102" transform="translate(0 57.925)"/><g transform="translate(32.479)"><path fill="#CECECE" fill-rule="nonzero" d="M8.00343745,4.79867155 L15.2065311,8.90916728 L15.2065311,17.1301587 L8.00343745,21.2406545 L0.800343745,17.1301587 L0.800343745,8.90916728 L8.00343745,4.79867155 M8.00343745,3.79201954 L0,8.40584127 L0,17.6334847 L8.00343745,22.2473065 L16.0068749,17.6334847 L16.0068749,8.40584127 L8.00343745,3.79201954 L8.00343745,3.79201954 Z"/><path fill="#CECECE" fill-rule="nonzero" d="M23.2099685,4.79867155 L30.4130623,8.90916728 L30.4130623,17.1301587 L23.2099685,21.2406545 L16.0068749,17.1301587 L16.0068749,8.90916728 L23.2099685,4.79867155 M23.2099685,3.79201954 L15.2065311,8.40584127 L15.2065311,17.6334847 L23.2099685,22.2473065 L31.213406,17.6334847 L31.213406,8.40584127 L23.2099685,3.79201954 L23.2099685,3.79201954 Z"/><path fill="#CECECE" fill-rule="nonzero" d="M38.4164997,4.79867155 L45.6195934,8.90916728 L45.6195934,17.1301587 L38.4164997,21.2406545 L31.213406,17.1301587 L31.213406,8.90916728 L38.4164997,4.79867155 M38.4164997,3.79201954 L30.4130623,8.40584127 L30.4130623,17.6334847 L38.4164997,22.2473065 L46.4199372,17.6334847 L46.4199372,8.40584127 L38.4164997,3.79201954 L38.4164997,3.79201954 Z"/><path fill="#CECECE" fill-rule="nonzero" d="M53.6230309,4.79867155 L60.8261246,8.90916728 L60.8261246,17.1301587 L53.6230309,21.2406545 L46.4199372,17.1301587 L46.4199372,8.90916728 L53.6230309,4.79867155 M53.6230309,3.79201954 L45.6195934,8.40584127 L45.6195934,17.6334847 L53.6230309,22.2473065 L61.6264683,17.6334847 L61.6264683,8.40584127 L53.6230309,3.79201954 L53.6230309,3.79201954 Z"/><path fill="#CECECE" fill-rule="nonzero" d="M68.8295621,4.79867155 L76.0326557,8.90916728 L76.0326557,17.1301587 L68.8295621,21.2406545 L61.6264683,17.1301587 L61.6264683,8.90916728 L68.8295621,4.79867155 M68.8295621,3.79201954 L60.8261246,8.40584127 L60.8261246,17.6334847 L68.8295621,22.2473065 L76.8329996,17.6334847 L76.8329996,8.40584127 L68.8295621,3.79201954 L68.8295621,3.79201954 Z"/><path fill="#CECECE" fill-rule="nonzero" d="M84.0360932,4.79867155 L91.2391869,8.90916728 L91.2391869,17.1301587 L84.0360932,21.2406545 L76.8329996,17.1301587 L76.8329996,8.90916728 L84.0360932,4.79867155 M84.0360932,3.79201954 L76.0326557,8.40584127 L76.0326557,17.6334847 L84.0360932,22.2473065 L92.0395306,17.6334847 L92.0395306,8.40584127 L84.0360932,3.79201954 L84.0360932,3.79201954 Z"/><path fill="#CECECE" fill-rule="nonzero" d="M99.2426244,4.79867155 L106.445719,8.90916728 L106.445719,17.1301587 L99.2426244,21.2406545 L92.0395306,17.1301587 L92.0395306,8.90916728 L99.2426244,4.79867155 M99.2426244,3.79201954 L91.2391869,8.40584127 L91.2391869,17.6334847 L99.2426244,22.2473065 L107.246061,17.6334847 L107.246061,8.40584127 L99.2426244,3.79201954 L99.2426244,3.79201954 Z"/><path fill="#CECECE" fill-rule="nonzero" d="M114.449155,4.79867155 L121.65225,8.90916728 L121.65225,17.1301587 L114.449155,21.2406545 L107.246061,17.1301587 L107.246061,8.90916728 L114.449155,4.79867155 M114.449155,3.79201954 L106.445719,8.40584127 L106.445719,17.6334847 L114.449155,22.2473065 L122.452594,17.6334847 L122.452594,8.40584127 L114.449155,3.79201954 L114.449155,3.79201954 Z"/><path fill="#CECECE" fill-rule="nonzero" d="M129.655686,4.79867155 L136.85878,8.90916728 L136.85878,17.1301587 L129.655686,21.2406545 L122.452594,17.1301587 L122.452594,8.90916728 L129.655686,4.79867155 M129.655686,3.79201954 L121.65225,8.40584127 L121.65225,17.6334847 L129.655686,22.2473065 L137.659125,17.6334847 L137.659125,8.40584127 L129.655686,3.79201954 L129.655686,3.79201954 Z"/><path fill="#CECECE" fill-rule="nonzero" d="M144.862218,4.79867155 L152.065311,8.90916728 L152.065311,17.1301587 L144.862218,21.2406545 L137.659125,17.1301587 L137.659125,8.90916728 L144.862218,4.79867155 M144.862218,3.79201954 L136.85878,8.40584127 L136.85878,17.6334847 L144.862218,22.2473065 L152.865655,17.6334847 L152.865655,8.40584127 L144.862218,3.79201954 L144.862218,3.79201954 Z"/><path fill="#CECECE" fill-rule="nonzero" d="M160.068749,4.79867155 L167.271843,8.90916728 L167.271843,17.1301587 L160.068749,21.2406545 L152.865655,17.1301587 L152.865655,8.90916728 L160.068749,4.79867155 M160.068749,3.79201954 L152.065311,8.40584127 L152.065311,17.6334847 L160.068749,22.2473065 L168.072186,17.6334847 L168.072186,8.40584127 L160.068749,3.79201954 L160.068749,3.79201954 Z"/><path fill="#CECECE" fill-rule="nonzero" d="M175.27528,4.79867155 L182.478374,8.90916728 L182.478374,17.1301587 L175.27528,21.2406545 L168.072186,17.1301587 L168.072186,8.90916728 L175.27528,4.79867155 M175.27528,3.79201954 L167.271843,8.40584127 L167.271843,17.6334847 L175.27528,22.2473065 L183.278718,17.6334847 L183.278718,8.40584127 L175.27528,3.79201954 L175.27528,3.79201954 Z"/><path fill="#CECECE" fill-rule="nonzero" d="M190.48181,4.79867155 L197.684905,8.90916728 L197.684905,17.1301587 L190.48181,21.2406545 L183.278718,17.1301587 L183.278718,8.90916728 L190.48181,4.79867155 M190.48181,3.79201954 L182.478374,8.40584127 L182.478374,17.6334847 L190.48181,22.2473065 L198.485249,17.6334847 L198.485249,8.40584127 L190.48181,3.79201954 L190.48181,3.79201954 Z"/><path fill="#CECECE" fill-rule="nonzero" d="M205.688343,4.79867155 L212.891436,8.90916728 L212.891436,17.1301587 L205.688343,21.2406545 L198.485249,17.1301587 L198.485249,8.90916728 L205.688343,4.79867155 M205.688343,3.79201954 L197.684905,8.40584127 L197.684905,17.6334847 L205.688343,22.2473065 L213.69178,17.6334847 L213.69178,8.40584127 L205.688343,3.79201954 L205.688343,3.79201954 Z"/><path fill="#CECECE" fill-rule="nonzero" d="M220.894874,4.79867155 L228.097967,8.90916728 L228.097967,17.1301587 L220.894874,21.2406545 L213.69178,17.1301587 L213.69178,8.90916728 L220.894874,4.79867155 M220.894874,3.79201954 L212.891436,8.40584127 L212.891436,17.6334847 L220.894874,22.2473065 L228.898311,17.6334847 L228.898311,8.40584127 L220.894874,3.79201954 L220.894874,3.79201954 Z"/><path fill="#CECECE" fill-rule="nonzero" d="M236.101405,4.79867155 L243.304498,8.90916728 L243.304498,17.1301587 L236.101405,21.2406545 L228.898311,17.1301587 L228.898311,8.90916728 L236.101405,4.79867155 M236.101405,3.79201954 L228.097967,8.40584127 L228.097967,17.6334847 L236.101405,22.2473065 L244.104842,17.6334847 L244.104842,8.40584127 L236.101405,3.79201954 L236.101405,3.79201954 Z"/><path fill="#CECECE" fill-rule="nonzero" d="M251.307936,4.79867155 L258.511029,8.90916728 L258.511029,17.1301587 L251.307936,21.2406545 L244.104842,17.1301587 L244.104842,8.90916728 L251.307936,4.79867155 M251.307936,3.79201954 L243.304498,8.40584127 L243.304498,17.6334847 L251.307936,22.2473065 L259.311373,17.6334847 L259.311373,8.40584127 L251.307936,3.79201954 L251.307936,3.79201954 Z"/><path fill="#CECECE" fill-rule="nonzero" d="M266.514467,4.79867155 L273.71756,8.90916728 L273.71756,17.1301587 L266.514467,21.2406545 L259.311373,17.1301587 L259.311373,8.90916728 L266.514467,4.79867155 M266.514467,3.79201954 L258.511029,8.40584127 L258.511029,17.6334847 L266.514467,22.2473065 L274.517904,17.6334847 L274.517904,8.40584127 L266.514467,3.79201954 L266.514467,3.79201954 Z"/><path fill="#CECECE" fill-rule="nonzero" d="M281.720998,4.79867155 L288.924093,8.90916728 L288.924093,17.1301587 L281.720998,21.2406545 L274.517904,17.1301587 L274.517904,8.90916728 L281.720998,4.79867155 M281.720998,3.79201954 L273.71756,8.40584127 L273.71756,17.6334847 L281.720998,22.2473065 L289.724435,17.6334847 L289.724435,8.40584127 L281.720998,3.79201954 L281.720998,3.79201954 Z"/><path fill="#CECECE" fill-rule="nonzero" d="M296.927529,4.79867155 L304.130623,8.90916728 L304.130623,17.1301587 L296.927529,21.2406545 L289.724435,17.1301587 L289.724435,8.90916728 L296.927529,4.79867155 M296.927529,3.79201954 L288.924093,8.40584127 L288.924093,17.6334847 L296.927529,22.2473065 L304.930967,17.6334847 L304.930967,8.40584127 L296.927529,3.79201954 L296.927529,3.79201954 Z"/><g fill="#CECECE" fill-rule="nonzero" transform="translate(7.203 17.13)"><path d="M8.40360932,1.09053968 L15.606703,5.20103541 L15.606703,13.4220269 L8.40360932,17.5325226 L1.20051561,13.4220269 L1.20051561,5.20103541 L8.40360932,1.09053968 M8.40360932,0.167775335 L0.400171872,4.78159707 L0.400171872,14.0092405 L8.40360932,18.6230622 L16.4070468,14.0092405 L16.4070468,4.78159707 L8.40360932,0.167775335 L8.40360932,0.167775335 Z"/><path d="M23.6101405,1.09053968 L30.8132342,5.20103541 L30.8132342,13.4220269 L23.6101405,17.5325226 L16.4070468,13.4220269 L16.4070468,5.20103541 L23.6101405,1.09053968 M23.6101405,0.167775335 L15.606703,4.78159707 L15.606703,14.0092405 L23.6101405,18.6230622 L31.6135779,14.0092405 L31.6135779,4.78159707 L23.6101405,0.167775335 L23.6101405,0.167775335 Z"/><path d="M38.8166717,1.09053968 L46.0197653,5.20103541 L46.0197653,13.4220269 L38.8166717,17.5325226 L31.6135779,13.4220269 L31.6135779,5.20103541 L38.8166717,1.09053968 M38.8166717,0.167775335 L30.8132342,4.78159707 L30.8132342,14.0092405 L38.8166717,18.6230622 L46.8201091,14.0092405 L46.8201091,4.78159707 L38.8166717,0.167775335 L38.8166717,0.167775335 Z"/><path d="M54.0232027,1.09053968 L61.2262966,5.20103541 L61.2262966,13.4220269 L54.0232027,17.5325226 L46.8201091,13.4220269 L46.8201091,5.20103541 L54.0232027,1.09053968 M54.0232027,0.167775335 L46.0197653,4.78159707 L46.0197653,14.0092405 L54.0232027,18.6230622 L62.0266402,14.0092405 L62.0266402,4.78159707 L54.0232027,0.167775335 L54.0232027,0.167775335 Z"/><path d="M69.2297339,1.09053968 L76.4328276,5.20103541 L76.4328276,13.4220269 L69.2297339,17.5325226 L62.0266402,13.4220269 L62.0266402,5.20103541 L69.2297339,1.09053968 M69.2297339,0.167775335 L61.2262966,4.78159707 L61.2262966,14.0092405 L69.2297339,18.6230622 L77.2331713,14.0092405 L77.2331713,4.78159707 L69.2297339,0.167775335 L69.2297339,0.167775335 Z"/><path d="M84.4362651,1.09053968 L91.6393587,5.20103541 L91.6393587,13.4220269 L84.4362651,17.5325226 L77.2331713,13.4220269 L77.2331713,5.20103541 L84.4362651,1.09053968 M84.4362651,0.167775335 L76.4328276,4.78159707 L76.4328276,14.0092405 L84.4362651,18.6230622 L92.4397026,14.0092405 L92.4397026,4.78159707 L84.4362651,0.167775335 L84.4362651,0.167775335 Z"/><path d="M99.6427962,1.09053968 L106.845889,5.20103541 L106.845889,13.4220269 L99.6427962,17.5325226 L92.4397026,13.4220269 L92.4397026,5.20103541 L99.6427962,1.09053968 M99.6427962,0.167775335 L91.6393587,4.78159707 L91.6393587,14.0092405 L99.6427962,18.6230622 L107.646233,14.0092405 L107.646233,4.78159707 L99.6427962,0.167775335 L99.6427962,0.167775335 Z"/><path d="M114.849328,1.09053968 L122.052421,5.20103541 L122.052421,13.4220269 L114.849328,17.5325226 L107.646233,13.4220269 L107.646233,5.20103541 L114.849328,1.09053968 M114.849328,0.167775335 L106.845889,4.78159707 L106.845889,14.0092405 L114.849328,18.6230622 L122.852764,14.0092405 L122.852764,4.78159707 L114.849328,0.167775335 L114.849328,0.167775335 Z"/><path d="M130.055859,1.09053968 L137.258953,5.20103541 L137.258953,13.4220269 L130.055859,17.5325226 L122.852764,13.4220269 L122.852764,5.20103541 L130.055859,1.09053968 M130.055859,0.167775335 L122.052421,4.78159707 L122.052421,14.0092405 L130.055859,18.6230622 L138.059296,14.0092405 L138.059296,4.78159707 L130.055859,0.167775335 L130.055859,0.167775335 Z"/><path d="M145.262389,1.09053968 L152.465484,5.20103541 L152.465484,13.4220269 L145.262389,17.5325226 L138.059296,13.4220269 L138.059296,5.20103541 L145.262389,1.09053968 M145.262389,0.167775335 L137.258953,4.78159707 L137.258953,14.0092405 L145.262389,18.6230622 L153.265828,14.0092405 L153.265828,4.78159707 L145.262389,0.167775335 L145.262389,0.167775335 Z"/><path d="M160.46892,1.09053968 L167.672015,5.20103541 L167.672015,13.4220269 L160.46892,17.5325226 L153.265828,13.4220269 L153.265828,5.20103541 L160.46892,1.09053968 M160.46892,0.167775335 L152.465484,4.78159707 L152.465484,14.0092405 L160.46892,18.6230622 L168.472359,14.0092405 L168.472359,4.78159707 L160.46892,0.167775335 L160.46892,0.167775335 Z"/><path d="M175.675452,1.09053968 L182.878545,5.20103541 L182.878545,13.4220269 L175.675452,17.5325226 L168.472359,13.4220269 L168.472359,5.20103541 L175.675452,1.09053968 M175.675452,0.167775335 L167.672015,4.78159707 L167.672015,14.0092405 L175.675452,18.6230622 L183.67889,14.0092405 L183.67889,4.78159707 L175.675452,0.167775335 L175.675452,0.167775335 Z"/><path d="M190.881983,1.09053968 L198.085077,5.20103541 L198.085077,13.4220269 L190.881983,17.5325226 L183.67889,13.4220269 L183.67889,5.20103541 L190.881983,1.09053968 M190.881983,0.167775335 L182.878545,4.78159707 L182.878545,14.0092405 L190.881983,18.6230622 L198.88542,14.0092405 L198.88542,4.78159707 L190.881983,0.167775335 L190.881983,0.167775335 Z"/><path d="M206.088514,1.09053968 L213.291608,5.20103541 L213.291608,13.4220269 L206.088514,17.5325226 L198.88542,13.4220269 L198.88542,5.20103541 L206.088514,1.09053968 M206.088514,0.167775335 L198.085077,4.78159707 L198.085077,14.0092405 L206.088514,18.6230622 L214.091952,14.0092405 L214.091952,4.78159707 L206.088514,0.167775335 L206.088514,0.167775335 Z"/><path d="M221.295046,1.09053968 L228.498139,5.20103541 L228.498139,13.4220269 L221.295046,17.5325226 L214.091952,13.4220269 L214.091952,5.20103541 L221.295046,1.09053968 M221.295046,0.167775335 L213.291608,4.78159707 L213.291608,14.0092405 L221.295046,18.6230622 L229.298483,14.0092405 L229.298483,4.78159707 L221.295046,0.167775335 L221.295046,0.167775335 Z"/><path d="M236.501577,1.09053968 L243.70467,5.20103541 L243.70467,13.4220269 L236.501577,17.5325226 L229.298483,13.4220269 L229.298483,5.20103541 L236.501577,1.09053968 M236.501577,0.167775335 L228.498139,4.78159707 L228.498139,14.0092405 L236.501577,18.6230622 L244.505014,14.0092405 L244.505014,4.78159707 L236.501577,0.167775335 L236.501577,0.167775335 Z"/><path d="M251.708108,1.09053968 L258.911202,5.20103541 L258.911202,13.4220269 L251.708108,17.5325226 L244.505014,13.4220269 L244.505014,5.20103541 L251.708108,1.09053968 M251.708108,0.167775335 L243.70467,4.78159707 L243.70467,14.0092405 L251.708108,18.6230622 L259.711545,14.0092405 L259.711545,4.78159707 L251.708108,0.167775335 L251.708108,0.167775335 Z"/><path d="M266.914639,1.09053968 L274.117732,5.20103541 L274.117732,13.4220269 L266.914639,17.5325226 L259.711545,13.4220269 L259.711545,5.20103541 L266.914639,1.09053968 M266.914639,0.167775335 L258.911202,4.78159707 L258.911202,14.0092405 L266.914639,18.6230622 L274.918077,14.0092405 L274.918077,4.78159707 L266.914639,0.167775335 L266.914639,0.167775335 Z"/><path d="M282.12117,1.09053968 L289.324263,5.20103541 L289.324263,13.4220269 L282.12117,17.5325226 L274.918077,13.4220269 L274.918077,5.20103541 L282.12117,1.09053968 M282.12117,0.167775335 L274.117732,4.78159707 L274.117732,14.0092405 L282.12117,18.6230622 L290.124607,14.0092405 L290.124607,4.78159707 L282.12117,0.167775335 L282.12117,0.167775335 Z"/><path d="M297.327702,1.09053968 L304.530795,5.20103541 L304.530795,13.4220269 L297.327702,17.5325226 L290.124607,13.4220269 L290.124607,5.20103541 L297.327702,1.09053968 M297.327702,0.167775335 L289.324263,4.78159707 L289.324263,14.0092405 L297.327702,18.6230622 L305.331138,14.0092405 L305.331138,4.78159707 L297.327702,0.167775335 L297.327702,0.167775335 Z"/></g><g fill="#CECECE" fill-rule="nonzero" transform="translate(0 30.552)"><path d="M8.00343745,1.25831502 L15.2065311,5.36881075 L15.2065311,13.5898022 L8.00343745,17.7002979 L0.800343745,13.5898022 L0.800343745,5.36881075 L8.00343745,1.25831502 M8.00343745,0.335550672 L0,4.94937241 L0,14.1770158 L8.00343745,18.7908376 L16.0068749,14.1770158 L16.0068749,4.94937241 L8.00343745,0.335550672 L8.00343745,0.335550672 Z"/><path d="M23.2099685,1.25831502 L30.4130623,5.36881075 L30.4130623,13.5898022 L23.2099685,17.7002979 L16.0068749,13.5898022 L16.0068749,5.36881075 L23.2099685,1.25831502 M23.2099685,0.335550672 L15.2065311,4.94937241 L15.2065311,14.1770158 L23.2099685,18.7908376 L31.213406,14.1770158 L31.213406,4.94937241 L23.2099685,0.335550672 L23.2099685,0.335550672 Z"/><path d="M38.4164997,1.25831502 L45.6195934,5.36881075 L45.6195934,13.5898022 L38.4164997,17.7002979 L31.213406,13.5898022 L31.213406,5.36881075 L38.4164997,1.25831502 M38.4164997,0.335550672 L30.4130623,4.94937241 L30.4130623,14.1770158 L38.4164997,18.7908376 L46.4199372,14.1770158 L46.4199372,4.94937241 L38.4164997,0.335550672 L38.4164997,0.335550672 Z"/><path d="M53.6230309,1.25831502 L60.8261246,5.36881075 L60.8261246,13.5898022 L53.6230309,17.7002979 L46.4199372,13.5898022 L46.4199372,5.36881075 L53.6230309,1.25831502 M53.6230309,0.335550672 L45.6195934,4.94937241 L45.6195934,14.1770158 L53.6230309,18.7908376 L61.6264683,14.1770158 L61.6264683,4.94937241 L53.6230309,0.335550672 L53.6230309,0.335550672 Z"/><path d="M68.8295621,1.25831502 L76.0326557,5.36881075 L76.0326557,13.5898022 L68.8295621,17.7002979 L61.6264683,13.5898022 L61.6264683,5.36881075 L68.8295621,1.25831502 M68.8295621,0.335550672 L60.8261246,4.94937241 L60.8261246,14.1770158 L68.8295621,18.7908376 L76.8329996,14.1770158 L76.8329996,4.94937241 L68.8295621,0.335550672 L68.8295621,0.335550672 Z"/><path d="M84.0360932,1.25831502 L91.2391869,5.36881075 L91.2391869,13.5898022 L84.0360932,17.7002979 L76.8329996,13.5898022 L76.8329996,5.36881075 L84.0360932,1.25831502 M84.0360932,0.335550672 L76.0326557,4.94937241 L76.0326557,14.1770158 L84.0360932,18.7908376 L92.0395306,14.1770158 L92.0395306,4.94937241 L84.0360932,0.335550672 L84.0360932,0.335550672 Z"/><path d="M99.2426244,1.25831502 L106.445719,5.36881075 L106.445719,13.5898022 L99.2426244,17.7002979 L92.0395306,13.5898022 L92.0395306,5.36881075 L99.2426244,1.25831502 M99.2426244,0.335550672 L91.2391869,4.94937241 L91.2391869,14.1770158 L99.2426244,18.7908376 L107.246061,14.1770158 L107.246061,4.94937241 L99.2426244,0.335550672 L99.2426244,0.335550672 Z"/><path d="M114.449155,1.25831502 L121.65225,5.36881075 L121.65225,13.5898022 L114.449155,17.7002979 L107.246061,13.5898022 L107.246061,5.36881075 L114.449155,1.25831502 M114.449155,0.335550672 L106.445719,4.94937241 L106.445719,14.1770158 L114.449155,18.7908376 L122.452594,14.1770158 L122.452594,4.94937241 L114.449155,0.335550672 L114.449155,0.335550672 Z"/><path d="M129.655686,1.25831502 L136.85878,5.36881075 L136.85878,13.5898022 L129.655686,17.7002979 L122.452594,13.5898022 L122.452594,5.36881075 L129.655686,1.25831502 M129.655686,0.335550672 L121.65225,4.94937241 L121.65225,14.1770158 L129.655686,18.7908376 L137.659125,14.1770158 L137.659125,4.94937241 L129.655686,0.335550672 L129.655686,0.335550672 Z"/><path d="M144.862218,1.25831502 L152.065311,5.36881075 L152.065311,13.5898022 L144.862218,17.7002979 L137.659125,13.5898022 L137.659125,5.36881075 L144.862218,1.25831502 M144.862218,0.335550672 L136.85878,4.94937241 L136.85878,14.1770158 L144.862218,18.7908376 L152.865655,14.1770158 L152.865655,4.94937241 L144.862218,0.335550672 L144.862218,0.335550672 Z"/><path d="M160.068749,1.25831502 L167.271843,5.36881075 L167.271843,13.5898022 L160.068749,17.7002979 L152.865655,13.5898022 L152.865655,5.36881075 L160.068749,1.25831502 M160.068749,0.335550672 L152.065311,4.94937241 L152.065311,14.1770158 L160.068749,18.7908376 L168.072186,14.1770158 L168.072186,4.94937241 L160.068749,0.335550672 L160.068749,0.335550672 Z"/><path d="M175.27528,1.25831502 L182.478374,5.36881075 L182.478374,13.5898022 L175.27528,17.7002979 L168.072186,13.5898022 L168.072186,5.36881075 L175.27528,1.25831502 M175.27528,0.335550672 L167.271843,4.94937241 L167.271843,14.1770158 L175.27528,18.7908376 L183.278718,14.1770158 L183.278718,4.94937241 L175.27528,0.335550672 L175.27528,0.335550672 Z"/><path d="M190.48181,1.25831502 L197.684905,5.36881075 L197.684905,13.5898022 L190.48181,17.7002979 L183.278718,13.5898022 L183.278718,5.36881075 L190.48181,1.25831502 M190.48181,0.335550672 L182.478374,4.94937241 L182.478374,14.1770158 L190.48181,18.7908376 L198.485249,14.1770158 L198.485249,4.94937241 L190.48181,0.335550672 L190.48181,0.335550672 Z"/><path d="M205.688343,1.25831502 L212.891436,5.36881075 L212.891436,13.5898022 L205.688343,17.7002979 L198.485249,13.5898022 L198.485249,5.36881075 L205.688343,1.25831502 M205.688343,0.335550672 L197.684905,4.94937241 L197.684905,14.1770158 L205.688343,18.7908376 L213.69178,14.1770158 L213.69178,4.94937241 L205.688343,0.335550672 L205.688343,0.335550672 Z"/><path d="M220.894874,1.25831502 L228.097967,5.36881075 L228.097967,13.5898022 L220.894874,17.7002979 L213.69178,13.5898022 L213.69178,5.36881075 L220.894874,1.25831502 M220.894874,0.335550672 L212.891436,4.94937241 L212.891436,14.1770158 L220.894874,18.7908376 L228.898311,14.1770158 L228.898311,4.94937241 L220.894874,0.335550672 L220.894874,0.335550672 Z"/><path d="M236.101405,1.25831502 L243.304498,5.36881075 L243.304498,13.5898022 L236.101405,17.7002979 L228.898311,13.5898022 L228.898311,5.36881075 L236.101405,1.25831502 M236.101405,0.335550672 L228.097967,4.94937241 L228.097967,14.1770158 L236.101405,18.7908376 L244.104842,14.1770158 L244.104842,4.94937241 L236.101405,0.335550672 L236.101405,0.335550672 Z"/><path d="M251.307936,1.25831502 L258.511029,5.36881075 L258.511029,13.5898022 L251.307936,17.7002979 L244.104842,13.5898022 L244.104842,5.36881075 L251.307936,1.25831502 M251.307936,0.335550672 L243.304498,4.94937241 L243.304498,14.1770158 L251.307936,18.7908376 L259.311373,14.1770158 L259.311373,4.94937241 L251.307936,0.335550672 L251.307936,0.335550672 Z"/><path d="M266.514467,1.25831502 L273.71756,5.36881075 L273.71756,13.5898022 L266.514467,17.7002979 L259.311373,13.5898022 L259.311373,5.36881075 L266.514467,1.25831502 M266.514467,0.335550672 L258.511029,4.94937241 L258.511029,14.1770158 L266.514467,18.7908376 L274.517904,14.1770158 L274.517904,4.94937241 L266.514467,0.335550672 L266.514467,0.335550672 Z"/><path d="M281.720998,1.25831502 L288.924093,5.36881075 L288.924093,13.5898022 L281.720998,17.7002979 L274.517904,13.5898022 L274.517904,5.36881075 L281.720998,1.25831502 M281.720998,0.335550672 L273.71756,4.94937241 L273.71756,14.1770158 L281.720998,18.7908376 L289.724435,14.1770158 L289.724435,4.94937241 L281.720998,0.335550672 L281.720998,0.335550672 Z"/><path d="M296.927529,1.25831502 L304.130623,5.36881075 L304.130623,13.5898022 L296.927529,17.7002979 L289.724435,13.5898022 L289.724435,5.36881075 L296.927529,1.25831502 M296.927529,0.335550672 L288.924093,4.94937241 L288.924093,14.1770158 L296.927529,18.7908376 L304.930967,14.1770158 L304.930967,4.94937241 L296.927529,0.335550672 L296.927529,0.335550672 Z"/></g><g fill="#CECECE" fill-rule="nonzero" transform="translate(7.203 43.974)"><path d="M8.40360932,1.34220269 L15.606703,5.45269841 L15.606703,13.6736899 L8.40360932,17.7841856 L1.20051561,13.6736899 L1.20051561,5.45269841 L8.40360932,1.34220269 M8.40360932,0.335550672 L0.400171872,4.94937241 L0.400171872,14.1770158 L8.40360932,18.7908376 L16.4070468,14.1770158 L16.4070468,4.94937241 L8.40360932,0.335550672 L8.40360932,0.335550672 Z"/><path d="M23.6101405,1.34220269 L30.8132342,5.45269841 L30.8132342,13.6736899 L23.6101405,17.7841856 L16.4070468,13.6736899 L16.4070468,5.45269841 L23.6101405,1.34220269 M23.6101405,0.335550672 L15.606703,4.94937241 L15.606703,14.1770158 L23.6101405,18.7908376 L31.6135779,14.1770158 L31.6135779,4.94937241 L23.6101405,0.335550672 L23.6101405,0.335550672 Z"/><path d="M38.8166717,1.34220269 L46.0197653,5.45269841 L46.0197653,13.6736899 L38.8166717,17.7841856 L31.6135779,13.6736899 L31.6135779,5.45269841 L38.8166717,1.34220269 M38.8166717,0.335550672 L30.8132342,4.94937241 L30.8132342,14.1770158 L38.8166717,18.7908376 L46.8201091,14.1770158 L46.8201091,4.94937241 L38.8166717,0.335550672 L38.8166717,0.335550672 Z"/><path d="M54.0232027,1.34220269 L61.2262966,5.45269841 L61.2262966,13.6736899 L54.0232027,17.7841856 L46.8201091,13.6736899 L46.8201091,5.45269841 L54.0232027,1.34220269 M54.0232027,0.335550672 L46.0197653,4.94937241 L46.0197653,14.1770158 L54.0232027,18.7908376 L62.0266402,14.1770158 L62.0266402,4.94937241 L54.0232027,0.335550672 L54.0232027,0.335550672 Z"/><path d="M69.2297339,1.34220269 L76.4328276,5.45269841 L76.4328276,13.6736899 L69.2297339,17.7841856 L62.0266402,13.6736899 L62.0266402,5.45269841 L69.2297339,1.34220269 M69.2297339,0.335550672 L61.2262966,4.94937241 L61.2262966,14.1770158 L69.2297339,18.7908376 L77.2331713,14.1770158 L77.2331713,4.94937241 L69.2297339,0.335550672 L69.2297339,0.335550672 Z"/><path d="M84.4362651,1.34220269 L91.6393587,5.45269841 L91.6393587,13.6736899 L84.4362651,17.7841856 L77.2331713,13.6736899 L77.2331713,5.45269841 L84.4362651,1.34220269 M84.4362651,0.335550672 L76.4328276,4.94937241 L76.4328276,14.1770158 L84.4362651,18.7908376 L92.4397026,14.1770158 L92.4397026,4.94937241 L84.4362651,0.335550672 L84.4362651,0.335550672 Z"/><path d="M99.6427962,1.34220269 L106.845889,5.45269841 L106.845889,13.6736899 L99.6427962,17.7841856 L92.4397026,13.6736899 L92.4397026,5.45269841 L99.6427962,1.34220269 M99.6427962,0.335550672 L91.6393587,4.94937241 L91.6393587,14.1770158 L99.6427962,18.7908376 L107.646233,14.1770158 L107.646233,4.94937241 L99.6427962,0.335550672 L99.6427962,0.335550672 Z"/><path d="M114.849328,1.34220269 L122.052421,5.45269841 L122.052421,13.6736899 L114.849328,17.7841856 L107.646233,13.6736899 L107.646233,5.45269841 L114.849328,1.34220269 M114.849328,0.335550672 L106.845889,4.94937241 L106.845889,14.1770158 L114.849328,18.7908376 L122.852764,14.1770158 L122.852764,4.94937241 L114.849328,0.335550672 L114.849328,0.335550672 Z"/><path d="M130.055859,1.34220269 L137.258953,5.45269841 L137.258953,13.6736899 L130.055859,17.7841856 L122.852764,13.6736899 L122.852764,5.45269841 L130.055859,1.34220269 M130.055859,0.335550672 L122.052421,4.94937241 L122.052421,14.1770158 L130.055859,18.7908376 L138.059296,14.1770158 L138.059296,4.94937241 L130.055859,0.335550672 L130.055859,0.335550672 Z"/><path d="M145.262389,1.34220269 L152.465484,5.45269841 L152.465484,13.6736899 L145.262389,17.7841856 L138.059296,13.6736899 L138.059296,5.45269841 L145.262389,1.34220269 M145.262389,0.335550672 L137.258953,4.94937241 L137.258953,14.1770158 L145.262389,18.7908376 L153.265828,14.1770158 L153.265828,4.94937241 L145.262389,0.335550672 L145.262389,0.335550672 Z"/><path d="M160.46892,1.34220269 L167.672015,5.45269841 L167.672015,13.6736899 L160.46892,17.7841856 L153.265828,13.6736899 L153.265828,5.45269841 L160.46892,1.34220269 M160.46892,0.335550672 L152.465484,4.94937241 L152.465484,14.1770158 L160.46892,18.7908376 L168.472359,14.1770158 L168.472359,4.94937241 L160.46892,0.335550672 L160.46892,0.335550672 Z"/><path d="M175.675452,1.34220269 L182.878545,5.45269841 L182.878545,13.6736899 L175.675452,17.7841856 L168.472359,13.6736899 L168.472359,5.45269841 L175.675452,1.34220269 M175.675452,0.335550672 L167.672015,4.94937241 L167.672015,14.1770158 L175.675452,18.7908376 L183.67889,14.1770158 L183.67889,4.94937241 L175.675452,0.335550672 L175.675452,0.335550672 Z"/><path d="M190.881983,1.34220269 L198.085077,5.45269841 L198.085077,13.6736899 L190.881983,17.7841856 L183.67889,13.6736899 L183.67889,5.45269841 L190.881983,1.34220269 M190.881983,0.335550672 L182.878545,4.94937241 L182.878545,14.1770158 L190.881983,18.7908376 L198.88542,14.1770158 L198.88542,4.94937241 L190.881983,0.335550672 L190.881983,0.335550672 Z"/><path d="M206.088514,1.34220269 L213.291608,5.45269841 L213.291608,13.6736899 L206.088514,17.7841856 L198.88542,13.6736899 L198.88542,5.45269841 L206.088514,1.34220269 M206.088514,0.335550672 L198.085077,4.94937241 L198.085077,14.1770158 L206.088514,18.7908376 L214.091952,14.1770158 L214.091952,4.94937241 L206.088514,0.335550672 L206.088514,0.335550672 Z"/><path d="M221.295046,1.34220269 L228.498139,5.45269841 L228.498139,13.6736899 L221.295046,17.7841856 L214.091952,13.6736899 L214.091952,5.45269841 L221.295046,1.34220269 M221.295046,0.335550672 L213.291608,4.94937241 L213.291608,14.1770158 L221.295046,18.7908376 L229.298483,14.1770158 L229.298483,4.94937241 L221.295046,0.335550672 L221.295046,0.335550672 Z"/><path d="M236.501577,1.34220269 L243.70467,5.45269841 L243.70467,13.6736899 L236.501577,17.7841856 L229.298483,13.6736899 L229.298483,5.45269841 L236.501577,1.34220269 M236.501577,0.335550672 L228.498139,4.94937241 L228.498139,14.1770158 L236.501577,18.7908376 L244.505014,14.1770158 L244.505014,4.94937241 L236.501577,0.335550672 L236.501577,0.335550672 Z"/><path d="M251.708108,1.34220269 L258.911202,5.45269841 L258.911202,13.6736899 L251.708108,17.7841856 L244.505014,13.6736899 L244.505014,5.45269841 L251.708108,1.34220269 M251.708108,0.335550672 L243.70467,4.94937241 L243.70467,14.1770158 L251.708108,18.7908376 L259.711545,14.1770158 L259.711545,4.94937241 L251.708108,0.335550672 L251.708108,0.335550672 Z"/><path d="M266.914639,1.34220269 L274.117732,5.45269841 L274.117732,13.6736899 L266.914639,17.7841856 L259.711545,13.6736899 L259.711545,5.45269841 L266.914639,1.34220269 M266.914639,0.335550672 L258.911202,4.94937241 L258.911202,14.1770158 L266.914639,18.7908376 L274.918077,14.1770158 L274.918077,4.94937241 L266.914639,0.335550672 L266.914639,0.335550672 Z"/><path d="M282.12117,1.34220269 L289.324263,5.45269841 L289.324263,13.6736899 L282.12117,17.7841856 L274.918077,13.6736899 L274.918077,5.45269841 L282.12117,1.34220269 M282.12117,0.335550672 L274.117732,4.94937241 L274.117732,14.1770158 L282.12117,18.7908376 L290.124607,14.1770158 L290.124607,4.94937241 L282.12117,0.335550672 L282.12117,0.335550672 Z"/><path d="M297.327702,1.34220269 L304.530795,5.45269841 L304.530795,13.6736899 L297.327702,17.7841856 L290.124607,13.6736899 L290.124607,5.45269841 L297.327702,1.34220269 M297.327702,0.335550672 L289.324263,4.94937241 L289.324263,14.1770158 L297.327702,18.7908376 L305.331138,14.1770158 L305.331138,4.94937241 L297.327702,0.335550672 L297.327702,0.335550672 Z"/></g><g fill="#CECECE" fill-rule="nonzero" transform="translate(0 57.396)"><path d="M8.00343745,1.50997803 L15.2065311,5.62047375 L15.2065311,13.8414652 L8.00343745,17.9519609 L0.800343745,13.8414652 L0.800343745,5.62047375 L8.00343745,1.50997803 M8.00343745,0.503326007 L0,5.11714775 L0,14.3447912 L8.00343745,18.9586129 L16.0068749,14.3447912 L16.0068749,5.11714775 L8.00343745,0.503326007 L8.00343745,0.503326007 Z"/><path d="M23.2099685,1.50997803 L30.4130623,5.62047375 L30.4130623,13.8414652 L23.2099685,17.9519609 L16.0068749,13.8414652 L16.0068749,5.62047375 L23.2099685,1.50997803 M23.2099685,0.503326007 L15.2065311,5.11714775 L15.2065311,14.3447912 L23.2099685,18.9586129 L31.213406,14.3447912 L31.213406,5.11714775 L23.2099685,0.503326007 L23.2099685,0.503326007 Z"/><path d="M38.4164997,1.50997803 L45.6195934,5.62047375 L45.6195934,13.8414652 L38.4164997,17.9519609 L31.213406,13.8414652 L31.213406,5.62047375 L38.4164997,1.50997803 M38.4164997,0.503326007 L30.4130623,5.11714775 L30.4130623,14.3447912 L38.4164997,18.9586129 L46.4199372,14.3447912 L46.4199372,5.11714775 L38.4164997,0.503326007 L38.4164997,0.503326007 Z"/><path d="M53.6230309,1.50997803 L60.8261246,5.62047375 L60.8261246,13.8414652 L53.6230309,17.9519609 L46.4199372,13.8414652 L46.4199372,5.62047375 L53.6230309,1.50997803 M53.6230309,0.503326007 L45.6195934,5.11714775 L45.6195934,14.3447912 L53.6230309,18.9586129 L61.6264683,14.3447912 L61.6264683,5.11714775 L53.6230309,0.503326007 L53.6230309,0.503326007 Z"/><path d="M68.8295621,1.50997803 L76.0326557,5.62047375 L76.0326557,13.8414652 L68.8295621,17.9519609 L61.6264683,13.8414652 L61.6264683,5.62047375 L68.8295621,1.50997803 M68.8295621,0.503326007 L60.8261246,5.11714775 L60.8261246,14.3447912 L68.8295621,18.9586129 L76.8329996,14.3447912 L76.8329996,5.11714775 L68.8295621,0.503326007 L68.8295621,0.503326007 Z"/><path d="M84.0360932,1.50997803 L91.2391869,5.62047375 L91.2391869,13.8414652 L84.0360932,17.9519609 L76.8329996,13.8414652 L76.8329996,5.62047375 L84.0360932,1.50997803 M84.0360932,0.503326007 L76.0326557,5.11714775 L76.0326557,14.3447912 L84.0360932,18.9586129 L92.0395306,14.3447912 L92.0395306,5.11714775 L84.0360932,0.503326007 L84.0360932,0.503326007 Z"/><path d="M99.2426244,1.50997803 L106.445719,5.62047375 L106.445719,13.8414652 L99.2426244,17.9519609 L92.0395306,13.8414652 L92.0395306,5.62047375 L99.2426244,1.50997803 M99.2426244,0.503326007 L91.2391869,5.11714775 L91.2391869,14.3447912 L99.2426244,18.9586129 L107.246061,14.3447912 L107.246061,5.11714775 L99.2426244,0.503326007 L99.2426244,0.503326007 Z"/><path d="M114.449155,1.50997803 L121.65225,5.62047375 L121.65225,13.8414652 L114.449155,17.9519609 L107.246061,13.8414652 L107.246061,5.62047375 L114.449155,1.50997803 M114.449155,0.503326007 L106.445719,5.11714775 L106.445719,14.3447912 L114.449155,18.9586129 L122.452594,14.3447912 L122.452594,5.11714775 L114.449155,0.503326007 L114.449155,0.503326007 Z"/><path d="M129.655686,1.50997803 L136.85878,5.62047375 L136.85878,13.8414652 L129.655686,17.9519609 L122.452594,13.8414652 L122.452594,5.62047375 L129.655686,1.50997803 M129.655686,0.503326007 L121.65225,5.11714775 L121.65225,14.3447912 L129.655686,18.9586129 L137.659125,14.3447912 L137.659125,5.11714775 L129.655686,0.503326007 L129.655686,0.503326007 Z"/><path d="M144.862218,1.50997803 L152.065311,5.62047375 L152.065311,13.8414652 L144.862218,17.9519609 L137.659125,13.8414652 L137.659125,5.62047375 L144.862218,1.50997803 M144.862218,0.503326007 L136.85878,5.11714775 L136.85878,14.3447912 L144.862218,18.9586129 L152.865655,14.3447912 L152.865655,5.11714775 L144.862218,0.503326007 L144.862218,0.503326007 Z"/><path d="M160.068749,1.50997803 L167.271843,5.62047375 L167.271843,13.8414652 L160.068749,17.9519609 L152.865655,13.8414652 L152.865655,5.62047375 L160.068749,1.50997803 M160.068749,0.503326007 L152.065311,5.11714775 L152.065311,14.3447912 L160.068749,18.9586129 L168.072186,14.3447912 L168.072186,5.11714775 L160.068749,0.503326007 L160.068749,0.503326007 Z"/><path d="M175.27528,1.50997803 L182.478374,5.62047375 L182.478374,13.8414652 L175.27528,17.9519609 L168.072186,13.8414652 L168.072186,5.62047375 L175.27528,1.50997803 M175.27528,0.503326007 L167.271843,5.11714775 L167.271843,14.3447912 L175.27528,18.9586129 L183.278718,14.3447912 L183.278718,5.11714775 L175.27528,0.503326007 L175.27528,0.503326007 Z"/><path d="M190.48181,1.50997803 L197.684905,5.62047375 L197.684905,13.8414652 L190.48181,17.9519609 L183.278718,13.8414652 L183.278718,5.62047375 L190.48181,1.50997803 M190.48181,0.503326007 L182.478374,5.11714775 L182.478374,14.3447912 L190.48181,18.9586129 L198.485249,14.3447912 L198.485249,5.11714775 L190.48181,0.503326007 L190.48181,0.503326007 Z"/><path d="M205.688343,1.50997803 L212.891436,5.62047375 L212.891436,13.8414652 L205.688343,17.9519609 L198.485249,13.8414652 L198.485249,5.62047375 L205.688343,1.50997803 M205.688343,0.503326007 L197.684905,5.11714775 L197.684905,14.3447912 L205.688343,18.9586129 L213.69178,14.3447912 L213.69178,5.11714775 L205.688343,0.503326007 L205.688343,0.503326007 Z"/><path d="M220.894874,1.50997803 L228.097967,5.62047375 L228.097967,13.8414652 L220.894874,17.9519609 L213.69178,13.8414652 L213.69178,5.62047375 L220.894874,1.50997803 M220.894874,0.503326007 L212.891436,5.11714775 L212.891436,14.3447912 L220.894874,18.9586129 L228.898311,14.3447912 L228.898311,5.11714775 L220.894874,0.503326007 L220.894874,0.503326007 Z"/><path d="M236.101405,1.50997803 L243.304498,5.62047375 L243.304498,13.8414652 L236.101405,17.9519609 L228.898311,13.8414652 L228.898311,5.62047375 L236.101405,1.50997803 M236.101405,0.503326007 L228.097967,5.11714775 L228.097967,14.3447912 L236.101405,18.9586129 L244.104842,14.3447912 L244.104842,5.11714775 L236.101405,0.503326007 L236.101405,0.503326007 Z"/><path d="M251.307936,1.50997803 L258.511029,5.62047375 L258.511029,13.8414652 L251.307936,17.9519609 L244.104842,13.8414652 L244.104842,5.62047375 L251.307936,1.50997803 M251.307936,0.503326007 L243.304498,5.11714775 L243.304498,14.3447912 L251.307936,18.9586129 L259.311373,14.3447912 L259.311373,5.11714775 L251.307936,0.503326007 L251.307936,0.503326007 Z"/><path d="M266.514467,1.50997803 L273.71756,5.62047375 L273.71756,13.8414652 L266.514467,17.9519609 L259.311373,13.8414652 L259.311373,5.62047375 L266.514467,1.50997803 M266.514467,0.503326007 L258.511029,5.11714775 L258.511029,14.3447912 L266.514467,18.9586129 L274.517904,14.3447912 L274.517904,5.11714775 L266.514467,0.503326007 L266.514467,0.503326007 Z"/><path d="M281.720998,1.50997803 L288.924093,5.62047375 L288.924093,13.8414652 L281.720998,17.9519609 L274.517904,13.8414652 L274.517904,5.62047375 L281.720998,1.50997803 M281.720998,0.503326007 L273.71756,5.11714775 L273.71756,14.3447912 L281.720998,18.9586129 L289.724435,14.3447912 L289.724435,5.11714775 L281.720998,0.503326007 L281.720998,0.503326007 Z"/><path d="M296.927529,1.50997803 L304.130623,5.62047375 L304.130623,13.8414652 L296.927529,17.9519609 L289.724435,13.8414652 L289.724435,5.62047375 L296.927529,1.50997803 M296.927529,0.503326007 L288.924093,5.11714775 L288.924093,14.3447912 L296.927529,18.9586129 L304.930967,14.3447912 L304.930967,5.11714775 L296.927529,0.503326007 L296.927529,0.503326007 Z"/></g><g fill="#CECECE" fill-rule="nonzero" transform="translate(7.203 70.818)"><path d="M8.40360932,1.50997803 L15.606703,5.62047375 L15.606703,13.8414652 L8.40360932,17.9519609 L1.20051561,13.8414652 L1.20051561,5.62047375 L8.40360932,1.50997803 M8.40360932,0.587213675 L0.400171872,5.20103541 L0.400171872,14.4286788 L8.40360932,19.0425006 L16.4070468,14.4286788 L16.4070468,5.20103541 L8.40360932,0.587213675 L8.40360932,0.587213675 Z"/><path d="M23.6101405,1.50997803 L30.8132342,5.62047375 L30.8132342,13.8414652 L23.6101405,17.9519609 L16.4070468,13.8414652 L16.4070468,5.62047375 L23.6101405,1.50997803 M23.6101405,0.587213675 L15.606703,5.20103541 L15.606703,14.4286788 L23.6101405,19.0425006 L31.6135779,14.4286788 L31.6135779,5.20103541 L23.6101405,0.587213675 L23.6101405,0.587213675 Z"/><path d="M38.8166717,1.50997803 L46.0197653,5.62047375 L46.0197653,13.8414652 L38.8166717,17.9519609 L31.6135779,13.8414652 L31.6135779,5.62047375 L38.8166717,1.50997803 M38.8166717,0.587213675 L30.8132342,5.20103541 L30.8132342,14.4286788 L38.8166717,19.0425006 L46.8201091,14.4286788 L46.8201091,5.20103541 L38.8166717,0.587213675 L38.8166717,0.587213675 Z"/><path d="M54.0232027,1.50997803 L61.2262966,5.62047375 L61.2262966,13.8414652 L54.0232027,17.9519609 L46.8201091,13.8414652 L46.8201091,5.62047375 L54.0232027,1.50997803 M54.0232027,0.587213675 L46.0197653,5.20103541 L46.0197653,14.4286788 L54.0232027,19.0425006 L62.0266402,14.4286788 L62.0266402,5.20103541 L54.0232027,0.587213675 L54.0232027,0.587213675 Z"/><path d="M69.2297339,1.50997803 L76.4328276,5.62047375 L76.4328276,13.8414652 L69.2297339,17.9519609 L62.0266402,13.8414652 L62.0266402,5.62047375 L69.2297339,1.50997803 M69.2297339,0.587213675 L61.2262966,5.20103541 L61.2262966,14.4286788 L69.2297339,19.0425006 L77.2331713,14.4286788 L77.2331713,5.20103541 L69.2297339,0.587213675 L69.2297339,0.587213675 Z"/><path d="M84.4362651,1.50997803 L91.6393587,5.62047375 L91.6393587,13.8414652 L84.4362651,17.9519609 L77.2331713,13.8414652 L77.2331713,5.62047375 L84.4362651,1.50997803 M84.4362651,0.587213675 L76.4328276,5.20103541 L76.4328276,14.4286788 L84.4362651,19.0425006 L92.4397026,14.4286788 L92.4397026,5.20103541 L84.4362651,0.587213675 L84.4362651,0.587213675 Z"/><path d="M99.6427962,1.50997803 L106.845889,5.62047375 L106.845889,13.8414652 L99.6427962,17.9519609 L92.4397026,13.8414652 L92.4397026,5.62047375 L99.6427962,1.50997803 M99.6427962,0.587213675 L91.6393587,5.20103541 L91.6393587,14.4286788 L99.6427962,19.0425006 L107.646233,14.4286788 L107.646233,5.20103541 L99.6427962,0.587213675 L99.6427962,0.587213675 Z"/><path d="M114.849328,1.50997803 L122.052421,5.62047375 L122.052421,13.8414652 L114.849328,17.9519609 L107.646233,13.8414652 L107.646233,5.62047375 L114.849328,1.50997803 M114.849328,0.587213675 L106.845889,5.20103541 L106.845889,14.4286788 L114.849328,19.0425006 L122.852764,14.4286788 L122.852764,5.20103541 L114.849328,0.587213675 L114.849328,0.587213675 Z"/><path d="M130.055859,1.50997803 L137.258953,5.62047375 L137.258953,13.8414652 L130.055859,17.9519609 L122.852764,13.8414652 L122.852764,5.62047375 L130.055859,1.50997803 M130.055859,0.587213675 L122.052421,5.20103541 L122.052421,14.4286788 L130.055859,19.0425006 L138.059296,14.4286788 L138.059296,5.20103541 L130.055859,0.587213675 L130.055859,0.587213675 Z"/><path d="M145.262389,1.50997803 L152.465484,5.62047375 L152.465484,13.8414652 L145.262389,17.9519609 L138.059296,13.8414652 L138.059296,5.62047375 L145.262389,1.50997803 M145.262389,0.587213675 L137.258953,5.20103541 L137.258953,14.4286788 L145.262389,19.0425006 L153.265828,14.4286788 L153.265828,5.20103541 L145.262389,0.587213675 L145.262389,0.587213675 Z"/><path d="M160.46892,1.50997803 L167.672015,5.62047375 L167.672015,13.8414652 L160.46892,17.9519609 L153.265828,13.8414652 L153.265828,5.62047375 L160.46892,1.50997803 M160.46892,0.587213675 L152.465484,5.20103541 L152.465484,14.4286788 L160.46892,19.0425006 L168.472359,14.4286788 L168.472359,5.20103541 L160.46892,0.587213675 L160.46892,0.587213675 Z"/><path d="M175.675452,1.50997803 L182.878545,5.62047375 L182.878545,13.8414652 L175.675452,17.9519609 L168.472359,13.8414652 L168.472359,5.62047375 L175.675452,1.50997803 M175.675452,0.587213675 L167.672015,5.20103541 L167.672015,14.4286788 L175.675452,19.0425006 L183.67889,14.4286788 L183.67889,5.20103541 L175.675452,0.587213675 L175.675452,0.587213675 Z"/><path d="M190.881983,1.50997803 L198.085077,5.62047375 L198.085077,13.8414652 L190.881983,17.9519609 L183.67889,13.8414652 L183.67889,5.62047375 L190.881983,1.50997803 M190.881983,0.587213675 L182.878545,5.20103541 L182.878545,14.4286788 L190.881983,19.0425006 L198.88542,14.4286788 L198.88542,5.20103541 L190.881983,0.587213675 L190.881983,0.587213675 Z"/><path d="M206.088514,1.50997803 L213.291608,5.62047375 L213.291608,13.8414652 L206.088514,17.9519609 L198.88542,13.8414652 L198.88542,5.62047375 L206.088514,1.50997803 M206.088514,0.587213675 L198.085077,5.20103541 L198.085077,14.4286788 L206.088514,19.0425006 L214.091952,14.4286788 L214.091952,5.20103541 L206.088514,0.587213675 L206.088514,0.587213675 Z"/><path d="M221.295046,1.50997803 L228.498139,5.62047375 L228.498139,13.8414652 L221.295046,17.9519609 L214.091952,13.8414652 L214.091952,5.62047375 L221.295046,1.50997803 M221.295046,0.587213675 L213.291608,5.20103541 L213.291608,14.4286788 L221.295046,19.0425006 L229.298483,14.4286788 L229.298483,5.20103541 L221.295046,0.587213675 L221.295046,0.587213675 Z"/><path d="M236.501577,1.50997803 L243.70467,5.62047375 L243.70467,13.8414652 L236.501577,17.9519609 L229.298483,13.8414652 L229.298483,5.62047375 L236.501577,1.50997803 M236.501577,0.587213675 L228.498139,5.20103541 L228.498139,14.4286788 L236.501577,19.0425006 L244.505014,14.4286788 L244.505014,5.20103541 L236.501577,0.587213675 L236.501577,0.587213675 Z"/><path d="M251.708108,1.50997803 L258.911202,5.62047375 L258.911202,13.8414652 L251.708108,17.9519609 L244.505014,13.8414652 L244.505014,5.62047375 L251.708108,1.50997803 M251.708108,0.587213675 L243.70467,5.20103541 L243.70467,14.4286788 L251.708108,19.0425006 L259.711545,14.4286788 L259.711545,5.20103541 L251.708108,0.587213675 L251.708108,0.587213675 Z"/><path d="M266.914639,1.50997803 L274.117732,5.62047375 L274.117732,13.8414652 L266.914639,17.9519609 L259.711545,13.8414652 L259.711545,5.62047375 L266.914639,1.50997803 M266.914639,0.587213675 L258.911202,5.20103541 L258.911202,14.4286788 L266.914639,19.0425006 L274.918077,14.4286788 L274.918077,5.20103541 L266.914639,0.587213675 L266.914639,0.587213675 Z"/><path d="M282.12117,1.50997803 L289.324263,5.62047375 L289.324263,13.8414652 L282.12117,17.9519609 L274.918077,13.8414652 L274.918077,5.62047375 L282.12117,1.50997803 M282.12117,0.587213675 L274.117732,5.20103541 L274.117732,14.4286788 L282.12117,19.0425006 L290.124607,14.4286788 L290.124607,5.20103541 L282.12117,0.587213675 L282.12117,0.587213675 Z"/><path d="M297.327702,1.50997803 L304.530795,5.62047375 L304.530795,13.8414652 L297.327702,17.9519609 L290.124607,13.8414652 L290.124607,5.62047375 L297.327702,1.50997803 M297.327702,0.587213675 L289.324263,5.20103541 L289.324263,14.4286788 L297.327702,19.0425006 L305.331138,14.4286788 L305.331138,5.20103541 L297.327702,0.587213675 L297.327702,0.587213675 Z"/></g><g fill="#CECECE" fill-rule="nonzero" transform="translate(0 84.24)"><path d="M8.00343745,1.67775335 L15.2065311,5.78824909 L15.2065311,14.0092405 L8.00343745,18.1197363 L0.800343745,14.0092405 L0.800343745,5.87213675 L8.00343745,1.67775335 M8.00343745,0.754989011 L0,5.36881075 L0,14.5964542 L8.00343745,19.2102759 L16.0068749,14.5964542 L16.0068749,5.36881075 L8.00343745,0.754989011 L8.00343745,0.754989011 Z"/><path d="M23.2099685,1.67775335 L30.4130623,5.78824909 L30.4130623,14.0092405 L23.2099685,18.1197363 L16.0068749,14.0092405 L16.0068749,5.87213675 L23.2099685,1.67775335 M23.2099685,0.754989011 L15.2065311,5.36881075 L15.2065311,14.5964542 L23.2099685,19.2102759 L31.213406,14.5964542 L31.213406,5.36881075 L23.2099685,0.754989011 L23.2099685,0.754989011 Z"/><path d="M38.4164997,1.67775335 L45.6195934,5.78824909 L45.6195934,14.0092405 L38.4164997,18.1197363 L31.213406,14.0092405 L31.213406,5.87213675 L38.4164997,1.67775335 M38.4164997,0.754989011 L30.4130623,5.36881075 L30.4130623,14.5964542 L38.4164997,19.2102759 L46.4199372,14.5964542 L46.4199372,5.36881075 L38.4164997,0.754989011 L38.4164997,0.754989011 Z"/><path d="M53.6230309,1.67775335 L60.8261246,5.78824909 L60.8261246,14.0092405 L53.6230309,18.1197363 L46.4199372,14.0092405 L46.4199372,5.87213675 L53.6230309,1.67775335 M53.6230309,0.754989011 L45.6195934,5.36881075 L45.6195934,14.5964542 L53.6230309,19.2102759 L61.6264683,14.5964542 L61.6264683,5.36881075 L53.6230309,0.754989011 L53.6230309,0.754989011 Z"/><path d="M68.8295621,1.67775335 L76.0326557,5.78824909 L76.0326557,14.0092405 L68.8295621,18.1197363 L61.6264683,14.0092405 L61.6264683,5.87213675 L68.8295621,1.67775335 M68.8295621,0.754989011 L60.8261246,5.36881075 L60.8261246,14.5964542 L68.8295621,19.2102759 L76.8329996,14.5964542 L76.8329996,5.36881075 L68.8295621,0.754989011 L68.8295621,0.754989011 Z"/><path d="M84.0360932,1.67775335 L91.2391869,5.78824909 L91.2391869,14.0092405 L84.0360932,18.1197363 L76.8329996,14.0092405 L76.8329996,5.87213675 L84.0360932,1.67775335 M84.0360932,0.754989011 L76.0326557,5.36881075 L76.0326557,14.5964542 L84.0360932,19.2102759 L92.0395306,14.5964542 L92.0395306,5.36881075 L84.0360932,0.754989011 L84.0360932,0.754989011 Z"/><path d="M99.2426244,1.67775335 L106.445719,5.78824909 L106.445719,14.0092405 L99.2426244,18.1197363 L92.0395306,14.0092405 L92.0395306,5.87213675 L99.2426244,1.67775335 M99.2426244,0.754989011 L91.2391869,5.36881075 L91.2391869,14.5964542 L99.2426244,19.2102759 L107.246061,14.5964542 L107.246061,5.36881075 L99.2426244,0.754989011 L99.2426244,0.754989011 Z"/><path d="M114.449155,1.67775335 L121.65225,5.78824909 L121.65225,14.0092405 L114.449155,18.1197363 L107.246061,14.0092405 L107.246061,5.87213675 L114.449155,1.67775335 M114.449155,0.754989011 L106.445719,5.36881075 L106.445719,14.5964542 L114.449155,19.2102759 L122.452594,14.5964542 L122.452594,5.36881075 L114.449155,0.754989011 L114.449155,0.754989011 Z"/><path d="M129.655686,1.67775335 L136.85878,5.78824909 L136.85878,14.0092405 L129.655686,18.1197363 L122.452594,14.0092405 L122.452594,5.87213675 L129.655686,1.67775335 M129.655686,0.754989011 L121.65225,5.36881075 L121.65225,14.5964542 L129.655686,19.2102759 L137.659125,14.5964542 L137.659125,5.36881075 L129.655686,0.754989011 L129.655686,0.754989011 Z"/><path d="M144.862218,1.67775335 L152.065311,5.78824909 L152.065311,14.0092405 L144.862218,18.1197363 L137.659125,14.0092405 L137.659125,5.87213675 L144.862218,1.67775335 M144.862218,0.754989011 L136.85878,5.36881075 L136.85878,14.5964542 L144.862218,19.2102759 L152.865655,14.5964542 L152.865655,5.36881075 L144.862218,0.754989011 L144.862218,0.754989011 Z"/><path d="M160.068749,1.67775335 L167.271843,5.78824909 L167.271843,14.0092405 L160.068749,18.1197363 L152.865655,14.0092405 L152.865655,5.87213675 L160.068749,1.67775335 M160.068749,0.754989011 L152.065311,5.36881075 L152.065311,14.5964542 L160.068749,19.2102759 L168.072186,14.5964542 L168.072186,5.36881075 L160.068749,0.754989011 L160.068749,0.754989011 Z"/><path d="M175.27528,1.67775335 L182.478374,5.78824909 L182.478374,14.0092405 L175.27528,18.1197363 L168.072186,14.0092405 L168.072186,5.87213675 L175.27528,1.67775335 M175.27528,0.754989011 L167.271843,5.36881075 L167.271843,14.5964542 L175.27528,19.2102759 L183.278718,14.5964542 L183.278718,5.36881075 L175.27528,0.754989011 L175.27528,0.754989011 Z"/><path d="M190.48181,1.67775335 L197.684905,5.78824909 L197.684905,14.0092405 L190.48181,18.1197363 L183.278718,14.0092405 L183.278718,5.87213675 L190.48181,1.67775335 M190.48181,0.754989011 L182.478374,5.36881075 L182.478374,14.5964542 L190.48181,19.2102759 L198.485249,14.5964542 L198.485249,5.36881075 L190.48181,0.754989011 L190.48181,0.754989011 Z"/><path d="M205.688343,1.67775335 L212.891436,5.78824909 L212.891436,14.0092405 L205.688343,18.1197363 L198.485249,14.0092405 L198.485249,5.87213675 L205.688343,1.67775335 M205.688343,0.754989011 L197.684905,5.36881075 L197.684905,14.5964542 L205.688343,19.2102759 L213.69178,14.5964542 L213.69178,5.36881075 L205.688343,0.754989011 L205.688343,0.754989011 Z"/><path d="M220.894874,1.67775335 L228.097967,5.78824909 L228.097967,14.0092405 L220.894874,18.1197363 L213.69178,14.0092405 L213.69178,5.87213675 L220.894874,1.67775335 M220.894874,0.754989011 L212.891436,5.36881075 L212.891436,14.5964542 L220.894874,19.2102759 L228.898311,14.5964542 L228.898311,5.36881075 L220.894874,0.754989011 L220.894874,0.754989011 Z"/><path d="M236.101405,1.67775335 L243.304498,5.78824909 L243.304498,14.0092405 L236.101405,18.1197363 L228.898311,14.0092405 L228.898311,5.87213675 L236.101405,1.67775335 M236.101405,0.754989011 L228.097967,5.36881075 L228.097967,14.5964542 L236.101405,19.2102759 L244.104842,14.5964542 L244.104842,5.36881075 L236.101405,0.754989011 L236.101405,0.754989011 Z"/><path d="M251.307936,1.67775335 L258.511029,5.78824909 L258.511029,14.0092405 L251.307936,18.1197363 L244.104842,14.0092405 L244.104842,5.87213675 L251.307936,1.67775335 M251.307936,0.754989011 L243.304498,5.36881075 L243.304498,14.5964542 L251.307936,19.2102759 L259.311373,14.5964542 L259.311373,5.36881075 L251.307936,0.754989011 L251.307936,0.754989011 Z"/><path d="M266.514467,1.67775335 L273.71756,5.78824909 L273.71756,14.0092405 L266.514467,18.1197363 L259.311373,14.0092405 L259.311373,5.87213675 L266.514467,1.67775335 M266.514467,0.754989011 L258.511029,5.36881075 L258.511029,14.5964542 L266.514467,19.2102759 L274.517904,14.5964542 L274.517904,5.36881075 L266.514467,0.754989011 L266.514467,0.754989011 Z"/><path d="M281.720998,1.67775335 L288.924093,5.78824909 L288.924093,14.0092405 L281.720998,18.1197363 L274.517904,14.0092405 L274.517904,5.87213675 L281.720998,1.67775335 M281.720998,0.754989011 L273.71756,5.36881075 L273.71756,14.5964542 L281.720998,19.2102759 L289.724435,14.5964542 L289.724435,5.36881075 L281.720998,0.754989011 L281.720998,0.754989011 Z"/><path d="M296.927529,1.67775335 L304.130623,5.78824909 L304.130623,14.0092405 L296.927529,18.1197363 L289.724435,14.0092405 L289.724435,5.87213675 L296.927529,1.67775335 M296.927529,0.754989011 L288.924093,5.36881075 L288.924093,14.5964542 L296.927529,19.2102759 L304.930967,14.5964542 L304.930967,5.36881075 L296.927529,0.754989011 L296.927529,0.754989011 Z"/></g><g fill="#CECECE" fill-rule="nonzero" transform="translate(7.203 97.662)"><path d="M8.40360932,1.76164103 L15.606703,5.87213675 L15.606703,14.0931282 L8.40360932,18.2036239 L1.20051561,14.0931282 L1.20051561,5.87213675 L8.40360932,1.76164103 M8.40360932,0.754989011 L0.400171872,5.36881075 L0.400171872,14.5964542 L8.40360932,19.2102759 L16.4070468,14.5964542 L16.4070468,5.36881075 L8.40360932,0.754989011 L8.40360932,0.754989011 Z"/><path d="M23.6101405,1.76164103 L30.8132342,5.87213675 L30.8132342,14.0931282 L23.6101405,18.2036239 L16.4070468,14.0931282 L16.4070468,5.87213675 L23.6101405,1.76164103 M23.6101405,0.754989011 L15.606703,5.36881075 L15.606703,14.5964542 L23.6101405,19.2102759 L31.6135779,14.5964542 L31.6135779,5.36881075 L23.6101405,0.754989011 L23.6101405,0.754989011 Z"/><path d="M38.8166717,1.76164103 L46.0197653,5.87213675 L46.0197653,14.0931282 L38.8166717,18.2036239 L31.6135779,14.0931282 L31.6135779,5.87213675 L38.8166717,1.76164103 M38.8166717,0.754989011 L30.8132342,5.36881075 L30.8132342,14.5964542 L38.8166717,19.2102759 L46.8201091,14.5964542 L46.8201091,5.36881075 L38.8166717,0.754989011 L38.8166717,0.754989011 Z"/><path d="M54.0232027,1.76164103 L61.2262966,5.87213675 L61.2262966,14.0931282 L54.0232027,18.2036239 L46.8201091,14.0931282 L46.8201091,5.87213675 L54.0232027,1.76164103 M54.0232027,0.754989011 L46.0197653,5.36881075 L46.0197653,14.5964542 L54.0232027,19.2102759 L62.0266402,14.5964542 L62.0266402,5.36881075 L54.0232027,0.754989011 L54.0232027,0.754989011 Z"/><path d="M69.2297339,1.76164103 L76.4328276,5.87213675 L76.4328276,14.0931282 L69.2297339,18.2036239 L62.0266402,14.0931282 L62.0266402,5.87213675 L69.2297339,1.76164103 M69.2297339,0.754989011 L61.2262966,5.36881075 L61.2262966,14.5964542 L69.2297339,19.2102759 L77.2331713,14.5964542 L77.2331713,5.36881075 L69.2297339,0.754989011 L69.2297339,0.754989011 Z"/><path d="M84.4362651,1.76164103 L91.6393587,5.87213675 L91.6393587,14.0931282 L84.4362651,18.2036239 L77.2331713,14.0931282 L77.2331713,5.87213675 L84.4362651,1.76164103 M84.4362651,0.754989011 L76.4328276,5.36881075 L76.4328276,14.5964542 L84.4362651,19.2102759 L92.4397026,14.5964542 L92.4397026,5.36881075 L84.4362651,0.754989011 L84.4362651,0.754989011 Z"/><path d="M99.6427962,1.76164103 L106.845889,5.87213675 L106.845889,14.0931282 L99.6427962,18.2036239 L92.4397026,14.0931282 L92.4397026,5.87213675 L99.6427962,1.76164103 M99.6427962,0.754989011 L91.6393587,5.36881075 L91.6393587,14.5964542 L99.6427962,19.2102759 L107.646233,14.5964542 L107.646233,5.36881075 L99.6427962,0.754989011 L99.6427962,0.754989011 Z"/><path d="M114.849328,1.76164103 L122.052421,5.87213675 L122.052421,14.0931282 L114.849328,18.2036239 L107.646233,14.0931282 L107.646233,5.87213675 L114.849328,1.76164103 M114.849328,0.754989011 L106.845889,5.36881075 L106.845889,14.5964542 L114.849328,19.2102759 L122.852764,14.5964542 L122.852764,5.36881075 L114.849328,0.754989011 L114.849328,0.754989011 Z"/><path d="M130.055859,1.76164103 L137.258953,5.87213675 L137.258953,14.0931282 L130.055859,18.2036239 L122.852764,14.0931282 L122.852764,5.87213675 L130.055859,1.76164103 M130.055859,0.754989011 L122.052421,5.36881075 L122.052421,14.5964542 L130.055859,19.2102759 L138.059296,14.5964542 L138.059296,5.36881075 L130.055859,0.754989011 L130.055859,0.754989011 Z"/><path d="M145.262389,1.76164103 L152.465484,5.87213675 L152.465484,14.0931282 L145.262389,18.2036239 L138.059296,14.0931282 L138.059296,5.87213675 L145.262389,1.76164103 M145.262389,0.754989011 L137.258953,5.36881075 L137.258953,14.5964542 L145.262389,19.2102759 L153.265828,14.5964542 L153.265828,5.36881075 L145.262389,0.754989011 L145.262389,0.754989011 Z"/><path d="M160.46892,1.76164103 L167.672015,5.87213675 L167.672015,14.0931282 L160.46892,18.2036239 L153.265828,14.0931282 L153.265828,5.87213675 L160.46892,1.76164103 M160.46892,0.754989011 L152.465484,5.36881075 L152.465484,14.5964542 L160.46892,19.2102759 L168.472359,14.5964542 L168.472359,5.36881075 L160.46892,0.754989011 L160.46892,0.754989011 Z"/><path d="M175.675452,1.76164103 L182.878545,5.87213675 L182.878545,14.0931282 L175.675452,18.2036239 L168.472359,14.0931282 L168.472359,5.87213675 L175.675452,1.76164103 M175.675452,0.754989011 L167.672015,5.36881075 L167.672015,14.5964542 L175.675452,19.2102759 L183.67889,14.5964542 L183.67889,5.36881075 L175.675452,0.754989011 L175.675452,0.754989011 Z"/><path d="M190.881983,1.76164103 L198.085077,5.87213675 L198.085077,14.0931282 L190.881983,18.2036239 L183.67889,14.0931282 L183.67889,5.87213675 L190.881983,1.76164103 M190.881983,0.754989011 L182.878545,5.36881075 L182.878545,14.5964542 L190.881983,19.2102759 L198.88542,14.5964542 L198.88542,5.36881075 L190.881983,0.754989011 L190.881983,0.754989011 Z"/><path d="M206.088514,1.76164103 L213.291608,5.87213675 L213.291608,14.0931282 L206.088514,18.2036239 L198.88542,14.0931282 L198.88542,5.87213675 L206.088514,1.76164103 M206.088514,0.754989011 L198.085077,5.36881075 L198.085077,14.5964542 L206.088514,19.2102759 L214.091952,14.5964542 L214.091952,5.36881075 L206.088514,0.754989011 L206.088514,0.754989011 Z"/><path d="M221.295046,1.76164103 L228.498139,5.87213675 L228.498139,14.0931282 L221.295046,18.2036239 L214.091952,14.0931282 L214.091952,5.87213675 L221.295046,1.76164103 M221.295046,0.754989011 L213.291608,5.36881075 L213.291608,14.5964542 L221.295046,19.2102759 L229.298483,14.5964542 L229.298483,5.36881075 L221.295046,0.754989011 L221.295046,0.754989011 Z"/><path d="M236.501577,1.76164103 L243.70467,5.87213675 L243.70467,14.0931282 L236.501577,18.2036239 L229.298483,14.0931282 L229.298483,5.87213675 L236.501577,1.76164103 M236.501577,0.754989011 L228.498139,5.36881075 L228.498139,14.5964542 L236.501577,19.2102759 L244.505014,14.5964542 L244.505014,5.36881075 L236.501577,0.754989011 L236.501577,0.754989011 Z"/><path d="M251.708108,1.76164103 L258.911202,5.87213675 L258.911202,14.0931282 L251.708108,18.2036239 L244.505014,14.0931282 L244.505014,5.87213675 L251.708108,1.76164103 M251.708108,0.754989011 L243.70467,5.36881075 L243.70467,14.5964542 L251.708108,19.2102759 L259.711545,14.5964542 L259.711545,5.36881075 L251.708108,0.754989011 L251.708108,0.754989011 Z"/><path d="M266.914639,1.76164103 L274.117732,5.87213675 L274.117732,14.0931282 L266.914639,18.2036239 L259.711545,14.0931282 L259.711545,5.87213675 L266.914639,1.76164103 M266.914639,0.754989011 L258.911202,5.36881075 L258.911202,14.5964542 L266.914639,19.2102759 L274.918077,14.5964542 L274.918077,5.36881075 L266.914639,0.754989011 L266.914639,0.754989011 Z"/><path d="M282.12117,1.76164103 L289.324263,5.87213675 L289.324263,14.0931282 L282.12117,18.2036239 L274.918077,14.0931282 L274.918077,5.87213675 L282.12117,1.76164103 M282.12117,0.754989011 L274.117732,5.36881075 L274.117732,14.5964542 L282.12117,19.2102759 L290.124607,14.5964542 L290.124607,5.36881075 L282.12117,0.754989011 L282.12117,0.754989011 Z"/><path d="M297.327702,1.76164103 L304.530795,5.87213675 L304.530795,14.0931282 L297.327702,18.2036239 L290.124607,14.0931282 L290.124607,5.87213675 L297.327702,1.76164103 M297.327702,0.754989011 L289.324263,5.36881075 L289.324263,14.5964542 L297.327702,19.2102759 L305.331138,14.5964542 L305.331138,5.36881075 L297.327702,0.754989011 L297.327702,0.754989011 Z"/></g><polyline stroke="#FFF" stroke-width="7.89" points="0 117.257 0 0 309.627 0 309.627 117.257"/></g><polyline stroke="#FFF" stroke-width="7.89" points="32.479 117.257 32.479 0 342.105 0 342.105 117.257"/></g><g fill-rule="nonzero" transform="translate(591.5 14)"><g transform="translate(928)"><polygon fill="#000" points="0 44.171 19 84 300 84 319 44.171" opacity=".1"/><g transform="translate(19)"><rect width="281" height="84" fill="#FFF" stroke="#F0F0F0"/><path fill="#37003C" d="M131.1,25.7583287 C132.9,26.5534368 134.1,27.6467105 134.3,27.746099 C134.2,27.2491564 133.8,25.062609 133.6,23.6711698 C134.7,24.3668894 137.1,26.0564942 137.9,26.6528253 C138.2,25.6589402 139.4,22.3791191 139.4,22.3791191 C139.4,22.3791191 141.4,25.6589402 141.8,26.2552713 C142.2,25.8577172 144.7,23.0748387 145.3,22.3791191 C145.4,23.9693354 145.6,26.1558827 145.6,26.5534368 C145.7,26.3546598 146.7,25.062609 148.2,23.8699468 C147.5,25.1619976 147.2,27.0503794 147,28.5412072 C145.5,28.1436531 143.8,27.8454875 142.1,27.8454875 C138.9,27.8454875 135.8,28.7399842 133.2,30.1314234 C132.8,28.7399842 132.1,26.9509909 131.1,25.7583287 Z M155.8,53.8852792 L154.4,52.2950629 C154,56.5687691 151.9,60.1467558 148.1,62.6314687 L147.5,60.3455328 C144.2,62.7308572 138.7,64.221685 133.9,61.538195 C134.5,58.5565395 135,55.4754954 133.9,51.7981203 C131.2,55.8730495 128.9,57.4632658 128.9,57.4632658 C127.1,54.4816103 127.3,48.4189107 127.8,46.7293059 L124.8,47.6238025 C124.8,45.6360322 126.3,41.3623259 128.4,38.877613 L126.5,38.5794474 L126.5,38.5794474 C127.8,35.995346 129.7,33.8087986 132,32.1191938 L132,32.1191938 C131.3,33.2124675 131.3,35.8959575 133.3,36.8898426 C132.4,35.3990149 132.3,33.510633 133.2,32.5167479 C134.1,31.5228627 135.6,31.9204168 136.6,32.6161364 C136.3,31.8210282 135.5,30.7277546 134.2,30.628366 L134.2,30.628366 C136.6,29.4357038 139.3,28.7399842 142.2,28.7399842 C142.7,28.7399842 143.3,28.7399842 143.8,28.8393727 L143.8,28.8393727 C144.6,29.1375383 145.9,30.3302005 146.4,31.0259201 C146.4,31.0259201 146.4,30.1314234 146,29.1375383 C149.1,29.9326464 150.6,31.1253086 151.2,31.7216397 C151.3,33.0136905 151.7,33.9081871 152.3,35.1008493 C151.3,34.0075756 148.8,32.1191938 147.5,31.7216397 C147.5,31.7216397 147.4,32.9143019 147,33.4112445 C144.6,31.7216397 143.4,31.2246971 143.4,31.2246971 C140.8,31.6222512 139.1,32.6161364 138.1,33.4112445 L138.9,34.1069642 C137.3,34.6039067 136.3,35.995346 136.3,35.995346 L137.7,36.194123 C137.7,36.194123 137.6,37.8837278 139.6,38.877613 C141.4,39.7721097 143.9,38.678836 146.4,39.6727211 C144.8,37.8837278 143.7,37.0886197 143.7,37.0886197 C143.7,37.0886197 143.1,36.9892312 142.6,36.9892312 C142,36.9892312 141.2,37.0886197 140.3,36.7904541 C139.9,36.5916771 139.4,36.2935115 139,36.0947345 C139,36.0947345 140.1,35.0014608 141.7,34.7032953 C141.7,34.7032953 143.2,35.1008493 144.3,35.995346 C145.1,35.2002378 145.9,35.2996264 145.9,35.2996264 C145.9,35.2996264 145.1,35.995346 145.3,36.8898426 C146.5,37.8837278 147.7,39.3745556 147.7,39.3745556 C149,38.678836 151.8,38.877613 152.3,39.4739441 C151.6,38.5794474 150.5,37.7843393 149.7,37.0886197 C149.6,36.6910656 148.7,35.4984034 148.6,35.3990149 C148.6,35.3990149 149.4,35.6971804 150.2,36.2935115 C150.4,35.995346 150.8,35.6971804 151.4,35.4984034 C152,35.995346 152.1,36.6910656 152,36.7904541 C151.7,37.0886197 151.5,37.1880082 151.5,37.1880082 L152.9,38.678836 L153,37.5855623 C156.3,42.2568226 158,47.4250255 155.8,53.8852792 Z M149.9,44.3439815 L149.9,42.0580456 C149.9,42.0580456 148.9,41.75988 147.8,40.8653834 C145.6,41.1635489 142.9,43.4494848 142.9,43.4494848 C142.9,43.4494848 143.8,45.1390896 144.8,47.0274714 C146.5,47.12686 149.1,44.9403126 149.9,44.3439815 Z M152.1,48.5182992 C152.1,48.5182992 151.9,47.524414 151.2,46.7293059 L149.5,46.7293059 C149.5,46.7293059 147.2,48.7170762 145.8,48.7170762 C145.8,48.7170762 146.6,50.207904 147,50.9036236 C147.8,50.7048466 149.2,50.1085155 149.7,49.5121844 C149.7,49.5121844 150.1,50.7048466 150,52.0962858 C150.7,51.5993433 151.8,50.406681 152.1,48.5182992 Z M152.8,40.9647719 C151.9,41.6604915 151.2,42.0580456 151.2,42.0580456 L151.2,44.3439815 C151.8,45.0397011 152.4,45.6360322 152.9,46.6299174 C153.8,45.1390896 153.6,42.8531537 152.8,40.9647719 Z M32,51.1024007 L32,31.6222512 L38.2,31.6222512 C42.2,31.6222512 45.3,34.0075756 45.3,38.0825049 C45.3,42.2568226 42.3,44.642147 38.2,44.642147 L35.8,44.642147 L35.8,51.0030121 L32,51.1024007 L32,51.1024007 Z M35.8,41.0641604 L38,41.0641604 C39.9,41.0641604 41.3,39.9708867 41.3,38.0825049 C41.3,36.194123 39.9,35.2002378 38,35.2002378 L35.8,35.2002378 L35.8,41.0641604 L35.8,41.0641604 Z M89.7,38.2812819 L93.3,38.2812819 L93.3,51.1024007 L89.7,51.1024007 L89.7,38.2812819 Z M91.6,36.5916771 C90.3,36.5916771 89.4,35.5977919 89.4,34.4051297 C89.4,33.113079 90.4,32.2185823 91.6,32.2185823 C92.8,32.2185823 93.8,33.2124675 93.8,34.4051297 C93.8,35.5977919 92.8,36.5916771 91.6,36.5916771 M84.4,43.5488733 C84.4,42.1574341 83.6,41.2629374 82.4,41.2629374 C81,41.2629374 80.3,42.1574341 80.3,43.5488733 L80.3,51.1024007 L76.7,51.1024007 L76.7,43.5488733 C76.7,42.1574341 75.9,41.2629374 74.7,41.2629374 C73.3,41.2629374 72.6,42.1574341 72.6,43.5488733 L72.6,51.1024007 L69,51.1024007 L69,38.2812819 L72.1,38.2812819 L72.5,39.9708867 C72.5,39.9708867 73.3,37.9831163 75.7,37.9831163 C77.2,37.9831163 78.4,38.5794474 79.3,39.8714982 L79.4,39.9708867 L79.5,39.8714982 C80.8,38.0825049 82.3,37.9831163 83.3,37.9831163 C86,37.9831163 87.9,40.0702752 87.9,42.9525422 L87.9,51.1024007 L84.3,51.1024007 L84.4,43.5488733 L84.4,43.5488733 Z M109.3,51.1024007 L109.3,38.2812819 L112.4,38.2812819 L112.8,40.1696637 C113.4,38.9770015 114.5,38.1818934 116.1,38.1818934 C116.4,38.1818934 116.8,38.1818934 117.1,38.2812819 L117.1,41.6604915 C116.7,41.561103 116.3,41.561103 115.8,41.561103 C114.1,41.561103 112.9,42.6543767 112.9,44.642147 L112.9,51.1024007 L109.3,51.1024007 Z M46.5,51.1024007 L46.5,38.2812819 L49.6,38.2812819 L50,40.1696637 C50.6,38.9770015 51.7,38.1818934 53.3,38.1818934 C53.6,38.1818934 54,38.1818934 54.3,38.2812819 L54.3,41.6604915 C53.9,41.561103 53.5,41.561103 53,41.561103 C51.3,41.561103 50.1,42.6543767 50.1,44.642147 L50.1,51.1024007 L46.5,51.1024007 Z M101.6,51.4005662 C97.6,51.4005662 94.7,48.7170762 94.7,44.7415355 C94.7,41.1635489 97.3,37.9831163 101.5,37.9831163 C104.6,37.9831163 107.8,40.3684408 107.8,44.642147 C107.8,44.9403126 107.8,45.4372552 107.7,45.9341977 L98.3,45.9341977 C98.6,47.325637 99.9,48.3195222 101.5,48.3195222 C102.9,48.3195222 104,47.8225796 105,46.8286944 L107.2,49.0152418 C105.8,50.6054581 103.8,51.4005662 101.6,51.4005662 M101.4,41.0641604 C99.9,41.0641604 98.7,41.958657 98.4,43.3500963 L104.4,43.3500963 C104.1,41.958657 102.9,41.0641604 101.4,41.0641604 M61.4,51.4005662 C57.4,51.4005662 54.5,48.7170762 54.5,44.7415355 C54.5,41.1635489 57.1,37.9831163 61.3,37.9831163 C64.4,37.9831163 67.6,40.3684408 67.6,44.642147 C67.6,44.9403126 67.6,45.4372552 67.5,45.9341977 L58.2,45.9341977 C58.5,47.325637 59.8,48.3195222 61.4,48.3195222 C62.8,48.3195222 63.9,47.8225796 64.9,46.8286944 L67.1,49.0152418 C65.6,50.6054581 63.6,51.4005662 61.4,51.4005662 M61.2,41.0641604 C59.7,41.0641604 58.5,41.958657 58.2,43.3500963 L64.2,43.3500963 C63.9,41.958657 62.7,41.0641604 61.2,41.0641604 M228.8,51.4999547 C231.6,51.4999547 235.1,50.009127 235.1,45.2384781 L235.1,38.3806704 L231.5,38.3806704 L231.5,44.9403126 C231.5,47.0274714 230.3,48.1207451 228.8,48.1207451 C227.1,48.1207451 226.1,47.12686 226.1,44.9403126 L226.1,38.3806704 L222.5,38.3806704 L222.5,45.2384781 C222.5,49.9097385 226,51.4999547 228.8,51.4999547 M198.2,51.4999547 C194.8,51.4999547 191.8,48.4189107 191.8,44.7415355 C191.8,41.1635489 194.8,38.1818934 198.2,38.1818934 C200.1,38.1818934 201.4,38.877613 202.2,40.0702752 L202.6,38.3806704 L205.7,38.3806704 L205.7,51.2017892 L202.6,51.2017892 L202.2,49.6115729 C201.4,50.7048466 199.9,51.4999547 198.2,51.4999547 M198.9,41.3623259 C197,41.3623259 195.5,42.7537652 195.5,44.7415355 C195.5,46.6299174 196.9,48.1207451 198.9,48.1207451 C200.8,48.1207451 202.2,46.6299174 202.2,44.7415355 C202.2,42.7537652 200.8,41.3623259 198.9,41.3623259 M176.6,51.2017892 L176.6,47.6238025 L168.3,47.6238025 L168.3,31.7216397 L164.5,31.7216397 L164.5,51.2017892 L176.6,51.2017892 Z M184.3,51.4999547 C180.3,51.4999547 177.4,48.8164648 177.4,44.8409241 C177.4,41.2629374 180,38.0825049 184.2,38.0825049 C187.3,38.0825049 190.5,40.4678293 190.5,44.7415355 C190.5,45.0397011 190.5,45.5366437 190.4,46.0335863 L181,46.0335863 C181.3,47.4250255 182.6,48.4189107 184.2,48.4189107 C185.6,48.4189107 186.7,47.9219681 187.7,46.9280829 L189.9,49.1146303 C188.5,50.6054581 186.5,51.4999547 184.3,51.4999547 M184.1,41.0641604 C182.6,41.0641604 181.4,41.958657 181.1,43.3500963 L187.1,43.3500963 C186.8,42.0580456 185.6,41.0641604 184.1,41.0641604 M243.3,51.4999547 C239.3,51.4999547 236.4,48.8164648 236.4,44.8409241 C236.4,41.2629374 239,38.0825049 243.2,38.0825049 C246.3,38.0825049 249.5,40.4678293 249.5,44.7415355 C249.5,45.0397011 249.5,45.5366437 249.4,46.0335863 L240,46.0335863 C240.3,47.4250255 241.6,48.4189107 243.2,48.4189107 C244.6,48.4189107 245.7,47.9219681 246.7,46.9280829 L248.9,49.1146303 C247.5,50.6054581 245.4,51.4999547 243.3,51.4999547 M243.1,41.0641604 C241.6,41.0641604 240.4,41.958657 240.1,43.3500963 L246.1,43.3500963 C245.7,42.0580456 244.5,41.0641604 243.1,41.0641604 M214.1,41.3623259 C212.2,41.3623259 210.7,42.7537652 210.7,44.7415355 C210.7,46.6299174 212.2,48.1207451 214.1,48.1207451 C216,48.1207451 217.5,46.6299174 217.5,44.7415355 C217.5,42.7537652 216,41.3623259 214.1,41.3623259 M217.3,39.9708867 L217.7,38.3806704 L220.8,38.3806704 L220.8,50.6054581 C220.8,52.9907825 220.1,54.6803873 218.5,55.8730495 C217.3,56.7675462 215.7,57.4632658 213.7,57.4632658 C211,57.4632658 209.1,56.5687691 207.5,55.0779414 L209.5,52.3944514 C210.5,53.2889481 211.8,54.0840562 213.4,54.0840562 C216,54.0840562 217.2,52.7920055 217.2,50.9036236 L217.2,50.009127 C216.1,51.1024007 214.9,51.4999547 213.5,51.4999547 C209.8,51.4999547 207,48.5182992 207,44.7415355 C207,40.9647719 210,38.1818934 213.6,38.1818934 C215.1,38.1818934 216.5,38.877613 217.3,39.9708867"/></g></g><polygon fill="#000" points="0 44.171 19 84 300 84 319 44.171" opacity=".1"/><g transform="translate(19)"><rect width="281" height="84" fill="#FFF" stroke="#F0F0F0"/><path fill="#37003C" d="M131.102176,25.3962511 C132.895771,26.1962511 134.0915,27.2962511 134.290788,27.3962511 C134.191144,26.8962511 133.792568,24.6962511 133.593279,23.2962511 C134.689365,23.9962511 137.080824,25.6962511 137.877977,26.2962511 C138.176909,25.2962511 139.372639,21.9962511 139.372639,21.9962511 C139.372639,21.9962511 141.365521,25.2962511 141.764098,25.8962511 C142.162674,25.4962511 144.653778,22.6962511 145.251642,21.9962511 C145.351287,23.5962511 145.550575,25.7962511 145.550575,26.1962511 C145.650219,25.9962511 146.64666,24.6962511 148.141322,23.4962511 C147.443813,24.7962511 147.144881,26.6962511 146.945593,28.1962511 C145.450931,27.7962511 143.75698,27.4962511 142.06303,27.4962511 C138.874418,27.4962511 135.78545,28.3962511 133.194703,29.7962511 C132.796126,28.3962511 132.098618,26.5962511 131.102176,25.3962511 Z M155.714276,53.6962511 L154.319258,52.0962511 C153.920682,56.3962511 151.828155,59.9962511 148.041678,62.4962511 L147.443813,60.1962511 C144.155557,62.5962511 138.67513,64.0962511 133.892212,61.3962511 C134.490077,58.3962511 134.988297,55.2962511 133.892212,51.5962511 C131.20182,55.6962511 128.910005,57.2962511 128.910005,57.2962511 C127.116411,54.2962511 127.315699,48.1962511 127.81392,46.4962511 L124.824596,47.3962511 C124.824596,45.3962511 126.319258,41.0962511 128.411785,38.5962511 L126.518546,38.2962511 L126.518546,38.2962511 C127.81392,35.6962511 129.707158,33.4962511 131.998973,31.7962511 L131.998973,31.7962511 C131.301464,32.8962511 131.301464,35.5962511 133.294347,36.5962511 C132.39755,35.0962511 132.297906,33.1962511 133.194703,32.1962511 C134.0915,31.1962511 135.586162,31.5962511 136.582603,32.2962511 C136.283671,31.4962511 135.486518,30.3962511 134.191144,30.2962511 L134.191144,30.2962511 C136.582603,29.0962511 139.272995,28.3962511 142.162674,28.3962511 C142.660895,28.3962511 143.25876,28.3962511 143.75698,28.4962511 L143.75698,28.4962511 C144.554134,28.7962511 145.849507,29.9962511 146.347728,30.6962511 C146.347728,30.6962511 146.347728,29.7962511 145.949151,28.7962511 C149.038119,29.5962511 150.532781,30.7962511 151.130646,31.3962511 C151.23029,32.6962511 151.628867,33.5962511 152.226731,34.7962511 C151.23029,33.6962511 148.739187,31.7962511 147.443813,31.3962511 C147.443813,31.3962511 147.344169,32.5962511 146.945593,33.0962511 C144.554134,31.3962511 143.358404,30.8962511 143.358404,30.8962511 C140.767657,31.2962511 139.073706,32.2962511 138.077265,33.0962511 L138.874418,33.7962511 C137.280112,34.2962511 136.283671,35.6962511 136.283671,35.6962511 L137.678689,35.8962511 C137.678689,35.8962511 137.579045,37.5962511 139.571927,38.5962511 C141.365521,39.4962511 143.856625,38.3962511 146.347728,39.3962511 C144.753422,37.5962511 143.657336,36.7962511 143.657336,36.7962511 C143.657336,36.7962511 143.059472,36.6962511 142.561251,36.6962511 C141.963386,36.6962511 141.166233,36.7962511 140.269436,36.4962511 C139.870859,36.2962511 139.372639,35.9962511 138.974062,35.7962511 C138.974062,35.7962511 140.070148,34.6962511 141.664454,34.3962511 C141.664454,34.3962511 143.159116,34.7962511 144.255201,35.6962511 C145.052354,34.8962511 145.849507,34.9962511 145.849507,34.9962511 C145.849507,34.9962511 145.052354,35.6962511 145.251642,36.5962511 C146.447372,37.5962511 147.643101,39.0962511 147.643101,39.0962511 C148.938475,38.3962511 151.728511,38.5962511 152.226731,39.1962511 C151.529222,38.2962511 150.433137,37.4962511 149.635984,36.7962511 C149.53634,36.3962511 148.639543,35.1962511 148.539899,35.0962511 C148.539899,35.0962511 149.337052,35.3962511 150.134205,35.9962511 C150.333493,35.6962511 150.732069,35.3962511 151.329934,35.1962511 C151.927799,35.6962511 152.027443,36.3962511 151.927799,36.4962511 C151.628867,36.7962511 151.429578,36.8962511 151.429578,36.8962511 L152.824596,38.3962511 L152.92424,37.2962511 C156.212497,41.9962511 157.906447,47.1962511 155.714276,53.6962511 Z M149.835272,44.0962511 L149.835272,41.7962511 C149.835272,41.7962511 148.838831,41.4962511 147.742746,40.5962511 C145.550575,40.8962511 142.860183,43.1962511 142.860183,43.1962511 C142.860183,43.1962511 143.75698,44.8962511 144.753422,46.7962511 C146.447372,46.8962511 149.038119,44.6962511 149.835272,44.0962511 Z M152.027443,48.2962511 C152.027443,48.2962511 151.828155,47.2962511 151.130646,46.4962511 L149.436696,46.4962511 C149.436696,46.4962511 147.144881,48.4962511 145.749863,48.4962511 C145.749863,48.4962511 146.547016,49.9962511 146.945593,50.6962511 C147.742746,50.4962511 149.137763,49.8962511 149.635984,49.2962511 C149.635984,49.2962511 150.034561,50.4962511 149.934916,51.8962511 C150.632425,51.3962511 151.728511,50.1962511 152.027443,48.2962511 Z M152.724952,40.6962511 C151.828155,41.3962511 151.130646,41.7962511 151.130646,41.7962511 L151.130646,44.0962511 C151.728511,44.7962511 152.326376,45.3962511 152.824596,46.3962511 C153.721393,44.8962511 153.522105,42.5962511 152.724952,40.6962511 Z M32.3548453,50.8962511 L32.3548453,31.2962511 L38.5327812,31.2962511 C42.5185463,31.2962511 45.6075143,33.6962511 45.6075143,37.7962511 C45.6075143,41.9962511 42.6181905,44.3962511 38.5327812,44.3962511 L36.1413221,44.3962511 L36.1413221,50.7962511 L32.3548453,50.8962511 L32.3548453,50.8962511 Z M36.1413221,40.7962511 L38.3334929,40.7962511 C40.2267314,40.7962511 41.6217492,39.6962511 41.6217492,37.7962511 C41.6217492,35.8962511 40.2267314,34.8962511 38.3334929,34.8962511 L36.1413221,34.8962511 L36.1413221,40.7962511 L36.1413221,40.7962511 Z M89.8495072,37.9962511 L93.4366958,37.9962511 L93.4366958,50.8962511 L89.8495072,50.8962511 L89.8495072,37.9962511 Z M91.7427456,36.2962511 C90.4473719,36.2962511 89.5505748,35.2962511 89.5505748,34.0962511 C89.5505748,32.7962511 90.5470161,31.8962511 91.7427456,31.8962511 C92.9384752,31.8962511 93.9349164,32.8962511 93.9349164,34.0962511 C93.9349164,35.2962511 92.9384752,36.2962511 91.7427456,36.2962511 M84.5683684,43.2962511 C84.5683684,41.8962511 83.7712154,40.9962511 82.5754858,40.9962511 C81.180468,40.9962511 80.4829591,41.8962511 80.4829591,43.2962511 L80.4829591,50.8962511 L76.8957705,50.8962511 L76.8957705,43.2962511 C76.8957705,41.8962511 76.0986175,40.9962511 74.902888,40.9962511 C73.5078702,40.9962511 72.8103613,41.8962511 72.8103613,43.2962511 L72.8103613,50.8962511 L69.2231727,50.8962511 L69.2231727,37.9962511 L72.3121406,37.9962511 L72.7107171,39.6962511 C72.7107171,39.6962511 73.5078702,37.6962511 75.8993292,37.6962511 C77.3939912,37.6962511 78.5897207,38.2962511 79.4865179,39.5962511 L79.586162,39.6962511 L79.6858061,39.5962511 C80.9811798,37.7962511 82.4758417,37.6962511 83.472283,37.6962511 C86.1626744,37.6962511 88.0559129,39.7962511 88.0559129,42.6962511 L88.0559129,50.8962511 L84.4687243,50.8962511 L84.5683684,43.2962511 L84.5683684,43.2962511 Z M109.379756,50.8962511 L109.379756,37.9962511 L112.468724,37.9962511 L112.867301,39.8962511 C113.465166,38.6962511 114.561251,37.8962511 116.155557,37.8962511 C116.454489,37.8962511 116.853066,37.8962511 117.151998,37.9962511 L117.151998,41.3962511 C116.753422,41.2962511 116.354845,41.2962511 115.856625,41.2962511 C114.162674,41.2962511 112.966945,42.3962511 112.966945,44.3962511 L112.966945,50.8962511 L109.379756,50.8962511 Z M46.8032438,50.8962511 L46.8032438,37.9962511 L49.8922118,37.9962511 L50.2907883,39.8962511 C50.8886531,38.6962511 51.9847385,37.8962511 53.5790445,37.8962511 C53.8779769,37.8962511 54.2765534,37.8962511 54.5754858,37.9962511 L54.5754858,41.3962511 C54.1769093,41.2962511 53.7783328,41.2962511 53.2801122,41.2962511 C51.586162,41.2962511 50.3904324,42.3962511 50.3904324,44.3962511 L50.3904324,50.8962511 L46.8032438,50.8962511 Z M101.707158,51.1962511 C97.7213933,51.1962511 94.8317136,48.4962511 94.8317136,44.4962511 C94.8317136,40.8962511 97.4224609,37.6962511 101.607514,37.6962511 C104.696482,37.6962511 107.885094,40.0962511 107.885094,44.3962511 C107.885094,44.6962511 107.885094,45.1962511 107.78545,45.6962511 L98.4189022,45.6962511 C98.7178346,47.0962511 100.013208,48.0962511 101.607514,48.0962511 C103.002532,48.0962511 104.098618,47.5962511 105.095059,46.5962511 L107.28723,48.7962511 C105.892212,50.3962511 103.899329,51.1962511 101.707158,51.1962511 M101.50787,40.7962511 C100.013208,40.7962511 98.8174787,41.6962511 98.5185463,43.0962511 L104.497194,43.0962511 C104.198262,41.6962511 103.002532,40.7962511 101.50787,40.7962511 M61.6502189,51.1962511 C57.6644538,51.1962511 54.7747741,48.4962511 54.7747741,44.4962511 C54.7747741,40.8962511 57.3655214,37.6962511 61.5505748,37.6962511 C64.6395428,37.6962511 67.8281549,40.0962511 67.8281549,44.3962511 C67.8281549,44.6962511 67.8281549,45.1962511 67.7285107,45.6962511 L58.4616068,45.6962511 C58.7605392,47.0962511 60.0559129,48.0962511 61.6502189,48.0962511 C63.0452367,48.0962511 64.1413221,47.5962511 65.1377634,46.5962511 L67.3299342,48.7962511 C65.8352723,50.3962511 63.8423897,51.1962511 61.6502189,51.1962511 M61.4509307,40.7962511 C59.9562687,40.7962511 58.7605392,41.6962511 58.4616068,43.0962511 L64.4402545,43.0962511 C64.1413221,41.6962511 62.9455926,40.7962511 61.4509307,40.7962511 M228.454489,51.2962511 C231.244525,51.2962511 234.732069,49.7962511 234.732069,44.9962511 L234.732069,38.0962511 L231.144881,38.0962511 L231.144881,44.6962511 C231.144881,46.7962511 229.949151,47.8962511 228.454489,47.8962511 C226.760539,47.8962511 225.764098,46.8962511 225.764098,44.6962511 L225.764098,38.0962511 L222.176909,38.0962511 L222.176909,44.9962511 C222.176909,49.6962511 225.664454,51.2962511 228.454489,51.2962511 M197.963386,51.2962511 C194.575486,51.2962511 191.586162,48.1962511 191.586162,44.4962511 C191.586162,40.8962511 194.575486,37.8962511 197.963386,37.8962511 C199.856625,37.8962511 201.151998,38.5962511 201.949151,39.7962511 L202.347728,38.0962511 L205.436696,38.0962511 L205.436696,50.9962511 L202.347728,50.9962511 L201.949151,49.3962511 C201.151998,50.4962511 199.657336,51.2962511 197.963386,51.2962511 M198.660895,41.0962511 C196.767657,41.0962511 195.272995,42.4962511 195.272995,44.4962511 C195.272995,46.3962511 196.668013,47.8962511 198.660895,47.8962511 C200.554134,47.8962511 201.949151,46.3962511 201.949151,44.4962511 C201.949151,42.4962511 200.554134,41.0962511 198.660895,41.0962511 M176.440255,50.9962511 L176.440255,47.3962511 L168.169792,47.3962511 L168.169792,31.3962511 L164.383315,31.3962511 L164.383315,50.9962511 L176.440255,50.9962511 Z M184.112852,51.2962511 C180.127087,51.2962511 177.237408,48.5962511 177.237408,44.5962511 C177.237408,40.9962511 179.828155,37.7962511 184.013208,37.7962511 C187.102176,37.7962511 190.290788,40.1962511 190.290788,44.4962511 C190.290788,44.7962511 190.290788,45.2962511 190.191144,45.7962511 L180.824596,45.7962511 C181.123529,47.1962511 182.418902,48.1962511 184.013208,48.1962511 C185.408226,48.1962511 186.504311,47.6962511 187.500753,46.6962511 L189.692924,48.8962511 C188.297906,50.3962511 186.305023,51.2962511 184.112852,51.2962511 M183.913564,40.7962511 C182.418902,40.7962511 181.223173,41.6962511 180.92424,43.0962511 L186.902888,43.0962511 C186.603956,41.7962511 185.408226,40.7962511 183.913564,40.7962511 M242.902888,51.2962511 C238.917123,51.2962511 236.027443,48.5962511 236.027443,44.5962511 C236.027443,40.9962511 238.61819,37.7962511 242.803244,37.7962511 C245.892212,37.7962511 249.080824,40.1962511 249.080824,44.4962511 C249.080824,44.7962511 249.080824,45.2962511 248.98118,45.7962511 L239.614632,45.7962511 C239.913564,47.1962511 241.208938,48.1962511 242.803244,48.1962511 C244.198262,48.1962511 245.294347,47.6962511 246.290788,46.6962511 L248.482959,48.8962511 C247.087941,50.3962511 244.995415,51.2962511 242.902888,51.2962511 M242.7036,40.7962511 C241.208938,40.7962511 240.013208,41.6962511 239.714276,43.0962511 L245.692924,43.0962511 C245.294347,41.7962511 244.098618,40.7962511 242.7036,40.7962511 M213.806803,41.0962511 C211.913564,41.0962511 210.418902,42.4962511 210.418902,44.4962511 C210.418902,46.3962511 211.913564,47.8962511 213.806803,47.8962511 C215.700041,47.8962511 217.194703,46.3962511 217.194703,44.4962511 C217.194703,42.4962511 215.700041,41.0962511 213.806803,41.0962511 M216.995415,39.6962511 L217.393991,38.0962511 L220.482959,38.0962511 L220.482959,50.3962511 C220.482959,52.7962511 219.78545,54.4962511 218.191144,55.6962511 C216.995415,56.5962511 215.401109,57.2962511 213.408226,57.2962511 C210.717835,57.2962511 208.824596,56.3962511 207.23029,54.8962511 L209.223173,52.1962511 C210.219614,53.0962511 211.514988,53.8962511 213.109294,53.8962511 C215.700041,53.8962511 216.895771,52.5962511 216.895771,50.6962511 L216.895771,49.7962511 C215.799685,50.8962511 214.603956,51.2962511 213.208938,51.2962511 C209.522105,51.2962511 206.732069,48.2962511 206.732069,44.4962511 C206.732069,40.6962511 209.721393,37.8962511 213.308582,37.8962511 C214.803244,37.8962511 216.198262,38.5962511 216.995415,39.6962511"/></g></g><g transform="translate(45.697 115)"><g transform="translate(670.803)"><path stroke="#FFF" stroke-width="5" d="M965.07147,2.50006641 L1005.00042,220.462033 L2.93778269,220.462033 L38.2571257,2.52960501 L965.07147,2.50006641 Z"/><path stroke="#FFF" stroke-width="5" d="M747.754858 2.5050774 757.500562 89.2346464 239.67786 89.2346464 247.766856 2.5050774 747.754858 2.5050774ZM295.001085 221.526983C426.053217 300.824339 563.304447 300.824339 706.754778 221.526983"/><ellipse cx="496.894" cy="149.948" fill="#FFF" rx="11.261" ry="5.796"/></g><g transform="translate(189.803 857)"><rect width="1959" height="6.867" y="192.492" fill="#FFF"/><ellipse cx="980.458" cy="196.138" fill="#FFF" rx="26.32" ry="22.904"/><ellipse cx="980.303" cy="203.5" stroke="#FFF" stroke-width="8" rx="235.696" ry="199.5"/></g><path stroke="#FFF" stroke-width="4" d="M-1.13686838e-13 15C13.3977991 13.4525141 21.3252615 8.77511868 23.7823871.967813758M1360 14.6481183C1352.07463 14.3439934 1347.02401 13.4912544 1344.84815 12.0899012 1337.7042 7.48888652 1337.25601 0 1337.25601 0" transform="translate(490.803 3)"/><g fill="#FFF"><polygon points="491.955 .001 499 0 7.029 1674.992 0 1675"/><polygon points="1842.58 .005 1849.467 .005 2328.584 1674.991 2321.694 1675.005"/><polygon points="498.879 .005 1844.078 .005 1844.078 5.054 497.441 5.054"/></g></g></g></svg>
